%TF.GenerationSoftware,KiCad,Pcbnew,7.0.9-7.0.9~ubuntu22.04.1*%
%TF.CreationDate,2025-06-23T15:00:47+03:00*%
%TF.ProjectId,ESP32-C6-DevKit-Lipo_Rev_A,45535033-322d-4433-962d-4465764b6974,A*%
%TF.SameCoordinates,PX791ddc0PY791ddc0*%
%TF.FileFunction,Legend,Top*%
%TF.FilePolarity,Positive*%
%FSLAX46Y46*%
G04 Gerber Fmt 4.6, Leading zero omitted, Abs format (unit mm)*
G04 Created by KiCad (PCBNEW 7.0.9-7.0.9~ubuntu22.04.1) date 2025-06-23 15:00:47*
%MOMM*%
%LPD*%
G01*
G04 APERTURE LIST*
%ADD10C,0.254000*%
%ADD11C,0.222250*%
%ADD12C,0.190500*%
%ADD13C,0.127000*%
%ADD14C,0.050000*%
%ADD15C,0.100000*%
%ADD16C,0.228600*%
G04 APERTURE END LIST*
D10*
G36*
X3625050Y17264405D02*
G01*
X2501564Y17264405D01*
X2501564Y18257787D01*
X2646707Y18257787D01*
X2669275Y18189878D01*
X2724974Y18144952D01*
X2796121Y18137269D01*
X2830424Y18148670D01*
X2927186Y18197051D01*
X2928928Y18198672D01*
X2931255Y18199178D01*
X2936914Y18203415D01*
X2936914Y17663548D01*
X2773628Y17663548D01*
X2704967Y17643387D01*
X2658105Y17589306D01*
X2647921Y17518474D01*
X2677648Y17453381D01*
X2737848Y17414692D01*
X2773628Y17409548D01*
X3354200Y17409548D01*
X3422861Y17429709D01*
X3469723Y17483790D01*
X3479907Y17554622D01*
X3450180Y17619715D01*
X3389980Y17658404D01*
X3354200Y17663548D01*
X3190914Y17663548D01*
X3190914Y18552548D01*
X3181124Y18585889D01*
X3171892Y18619404D01*
X3171065Y18620145D01*
X3170753Y18621209D01*
X3144476Y18643978D01*
X3118605Y18667168D01*
X3117510Y18667345D01*
X3116672Y18668071D01*
X3082262Y18673019D01*
X3047955Y18678541D01*
X3046938Y18678098D01*
X3045840Y18678255D01*
X3014231Y18663821D01*
X2982371Y18649912D01*
X2981396Y18648825D01*
X2980747Y18648528D01*
X2979775Y18647017D01*
X2958244Y18622995D01*
X2868458Y18488317D01*
X2795158Y18415018D01*
X2716832Y18375854D01*
X2664436Y18327116D01*
X2646707Y18257787D01*
X2501564Y18257787D01*
X2501564Y18823684D01*
X3625050Y18823684D01*
X3625050Y17264405D01*
G37*
D11*
G36*
X23001836Y18348028D02*
G01*
X22024264Y18348028D01*
X22024264Y19204604D01*
X22151264Y19204604D01*
X22181979Y19143175D01*
X22242933Y19111531D01*
X22310846Y19121760D01*
X22395513Y19164092D01*
X22404025Y19172476D01*
X22404025Y18697278D01*
X22261150Y18697278D01*
X22195832Y18676055D01*
X22155464Y18620493D01*
X22155464Y18551813D01*
X22195832Y18496251D01*
X22261150Y18475028D01*
X22769150Y18475028D01*
X22834468Y18496251D01*
X22874836Y18551813D01*
X22874836Y18620493D01*
X22834468Y18676055D01*
X22769150Y18697278D01*
X22626275Y18697278D01*
X22626275Y19475153D01*
X22625551Y19477379D01*
X22626185Y19479632D01*
X22615003Y19509844D01*
X22605052Y19540471D01*
X22603158Y19541847D01*
X22602347Y19544040D01*
X22575559Y19561899D01*
X22549490Y19580839D01*
X22547149Y19580839D01*
X22545202Y19582137D01*
X22513023Y19580839D01*
X22480810Y19580839D01*
X22478916Y19579464D01*
X22476579Y19579369D01*
X22451311Y19559408D01*
X22425248Y19540471D01*
X22424524Y19538246D01*
X22422688Y19536794D01*
X22344125Y19418950D01*
X22279989Y19354814D01*
X22211454Y19320546D01*
X22162523Y19272353D01*
X22151264Y19204604D01*
X22024264Y19204604D01*
X22024264Y19709137D01*
X23001836Y19709137D01*
X23001836Y18348028D01*
G37*
D10*
G36*
X20772459Y33246018D02*
G01*
X20791696Y33226781D01*
X20817452Y33175269D01*
X20817452Y33090087D01*
X20791696Y33038575D01*
X20772459Y33019337D01*
X20720949Y32993582D01*
X20490623Y32993582D01*
X20439113Y33019337D01*
X20419874Y33038576D01*
X20394119Y33090086D01*
X20394119Y33175269D01*
X20419874Y33226779D01*
X20439113Y33246018D01*
X20490623Y33271773D01*
X20720949Y33271773D01*
X20772459Y33246018D01*
G37*
G36*
X20450871Y36283487D02*
G01*
X20442242Y36283487D01*
X20410160Y36299528D01*
X20394119Y36331610D01*
X20394119Y36465174D01*
X20408700Y36494338D01*
X20450871Y36283487D01*
G37*
G36*
X20772459Y39583923D02*
G01*
X20791696Y39564686D01*
X20817452Y39513174D01*
X20817452Y39427992D01*
X20791696Y39376480D01*
X20772459Y39357242D01*
X20720949Y39331487D01*
X20490623Y39331487D01*
X20439113Y39357242D01*
X20419874Y39376481D01*
X20394119Y39427991D01*
X20394119Y39513174D01*
X20419874Y39564684D01*
X20439113Y39583923D01*
X20490623Y39609678D01*
X20720949Y39609678D01*
X20772459Y39583923D01*
G37*
G36*
X21216595Y28869108D02*
G01*
X19656633Y28869108D01*
X19656633Y29932500D01*
X20141283Y29932500D01*
X20151984Y29861745D01*
X20199239Y29808006D01*
X20232229Y29793230D01*
X20552356Y29701765D01*
X20413476Y29646213D01*
X20394465Y29631272D01*
X20372976Y29620185D01*
X20366849Y29609567D01*
X20357214Y29601993D01*
X20349299Y29579149D01*
X20337214Y29558201D01*
X20337800Y29545957D01*
X20333789Y29534376D01*
X20339482Y29510879D01*
X20340640Y29486724D01*
X20347753Y29476741D01*
X20350640Y29464828D01*
X20368133Y29448138D01*
X20382166Y29428444D01*
X20398888Y29418796D01*
X20402415Y29415431D01*
X20405878Y29414763D01*
X20413476Y29410379D01*
X20552356Y29354828D01*
X20232229Y29263362D01*
X20171749Y29225114D01*
X20141547Y29160239D01*
X20151214Y29089335D01*
X20197680Y29034913D01*
X20266192Y29014251D01*
X20302009Y29019134D01*
X20979342Y29212658D01*
X21005075Y29228933D01*
X21032118Y29242883D01*
X21034980Y29247845D01*
X21039822Y29250906D01*
X21052671Y29278507D01*
X21067880Y29304867D01*
X21067605Y29310587D01*
X21070024Y29315781D01*
X21065910Y29345950D01*
X21064454Y29376345D01*
X21061130Y29381009D01*
X21060357Y29386685D01*
X21040593Y29409833D01*
X21022929Y29434624D01*
X21016025Y29438607D01*
X21013891Y29441107D01*
X21009284Y29442497D01*
X20991618Y29452689D01*
X20802601Y29528296D01*
X20991618Y29603903D01*
X21015552Y29622714D01*
X21041036Y29639355D01*
X21043377Y29644583D01*
X21047881Y29648122D01*
X21057844Y29676882D01*
X21070288Y29704664D01*
X21069431Y29710329D01*
X21071306Y29715740D01*
X21064139Y29745318D01*
X21059587Y29775419D01*
X21055803Y29779722D01*
X21054455Y29785288D01*
X21032437Y29806295D01*
X21012332Y29829158D01*
X21005056Y29832417D01*
X21002679Y29834685D01*
X20997956Y29835597D01*
X20979342Y29843934D01*
X20302009Y30037458D01*
X20230451Y30036935D01*
X20170535Y29997809D01*
X20141283Y29932500D01*
X19656633Y29932500D01*
X19656633Y30996881D01*
X20141283Y30996881D01*
X20151984Y30926126D01*
X20199239Y30872387D01*
X20232229Y30857611D01*
X20552356Y30766146D01*
X20413476Y30710594D01*
X20394465Y30695653D01*
X20372976Y30684566D01*
X20366849Y30673948D01*
X20357214Y30666374D01*
X20349299Y30643530D01*
X20337214Y30622582D01*
X20337800Y30610338D01*
X20333789Y30598757D01*
X20339482Y30575260D01*
X20340640Y30551105D01*
X20347753Y30541122D01*
X20350640Y30529209D01*
X20368133Y30512519D01*
X20382166Y30492825D01*
X20398888Y30483177D01*
X20402415Y30479812D01*
X20405878Y30479144D01*
X20413476Y30474760D01*
X20552356Y30419209D01*
X20232229Y30327743D01*
X20171749Y30289495D01*
X20141547Y30224620D01*
X20151214Y30153716D01*
X20197680Y30099294D01*
X20266192Y30078632D01*
X20302009Y30083515D01*
X20979342Y30277039D01*
X21005075Y30293314D01*
X21032118Y30307264D01*
X21034980Y30312226D01*
X21039822Y30315287D01*
X21052671Y30342888D01*
X21067880Y30369248D01*
X21067605Y30374968D01*
X21070024Y30380162D01*
X21065910Y30410331D01*
X21064454Y30440726D01*
X21061130Y30445390D01*
X21060357Y30451066D01*
X21040593Y30474214D01*
X21022929Y30499005D01*
X21016025Y30502988D01*
X21013891Y30505488D01*
X21009284Y30506878D01*
X20991618Y30517070D01*
X20802601Y30592677D01*
X20991618Y30668284D01*
X21015552Y30687095D01*
X21041036Y30703736D01*
X21043377Y30708964D01*
X21047881Y30712503D01*
X21057844Y30741263D01*
X21070288Y30769045D01*
X21069431Y30774710D01*
X21071306Y30780121D01*
X21064139Y30809699D01*
X21059587Y30839800D01*
X21055803Y30844103D01*
X21054455Y30849669D01*
X21032437Y30870676D01*
X21012332Y30893539D01*
X21005056Y30896798D01*
X21002679Y30899066D01*
X20997956Y30899978D01*
X20979342Y30908315D01*
X20302009Y31101839D01*
X20230451Y31101316D01*
X20170535Y31062190D01*
X20141283Y30996881D01*
X19656633Y30996881D01*
X19656633Y32061262D01*
X20141283Y32061262D01*
X20151984Y31990507D01*
X20199239Y31936768D01*
X20232229Y31921992D01*
X20552356Y31830527D01*
X20413476Y31774975D01*
X20394465Y31760034D01*
X20372976Y31748947D01*
X20366849Y31738329D01*
X20357214Y31730755D01*
X20349299Y31707911D01*
X20337214Y31686963D01*
X20337800Y31674719D01*
X20333789Y31663138D01*
X20339482Y31639641D01*
X20340640Y31615486D01*
X20347753Y31605503D01*
X20350640Y31593590D01*
X20368133Y31576900D01*
X20382166Y31557206D01*
X20398888Y31547558D01*
X20402415Y31544193D01*
X20405878Y31543525D01*
X20413476Y31539141D01*
X20552356Y31483590D01*
X20232229Y31392124D01*
X20171749Y31353876D01*
X20141547Y31289001D01*
X20151214Y31218097D01*
X20197680Y31163675D01*
X20266192Y31143013D01*
X20302009Y31147896D01*
X20979342Y31341420D01*
X21005075Y31357695D01*
X21032118Y31371645D01*
X21034980Y31376607D01*
X21039822Y31379668D01*
X21052671Y31407269D01*
X21067880Y31433629D01*
X21067605Y31439349D01*
X21070024Y31444543D01*
X21065910Y31474712D01*
X21064454Y31505107D01*
X21061130Y31509771D01*
X21060357Y31515447D01*
X21040593Y31538595D01*
X21022929Y31563386D01*
X21016025Y31567369D01*
X21013891Y31569869D01*
X21009284Y31571259D01*
X20991618Y31581451D01*
X20802601Y31657058D01*
X20991618Y31732665D01*
X21015552Y31751476D01*
X21041036Y31768117D01*
X21043377Y31773345D01*
X21047881Y31776884D01*
X21057844Y31805644D01*
X21070288Y31833426D01*
X21069431Y31839091D01*
X21071306Y31844502D01*
X21064139Y31874080D01*
X21059587Y31904181D01*
X21055803Y31908484D01*
X21054455Y31914050D01*
X21032437Y31935057D01*
X21012332Y31957920D01*
X21005056Y31961179D01*
X21002679Y31963447D01*
X20997956Y31964359D01*
X20979342Y31972696D01*
X20302009Y32166220D01*
X20230451Y32165697D01*
X20170535Y32126571D01*
X20141283Y32061262D01*
X19656633Y32061262D01*
X19656633Y32440213D01*
X20721015Y32440213D01*
X20723947Y32426734D01*
X20721984Y32413079D01*
X20727713Y32400533D01*
X20728698Y32386771D01*
X20734255Y32379348D01*
X20736226Y32370288D01*
X20749818Y32352130D01*
X20751711Y32347986D01*
X20754041Y32346489D01*
X20757888Y32341350D01*
X20806269Y32292969D01*
X20814409Y32288525D01*
X20819965Y32281103D01*
X20845319Y32271647D01*
X20869076Y32258675D01*
X20878325Y32259337D01*
X20887013Y32256096D01*
X20913457Y32261849D01*
X20940454Y32263779D01*
X20947876Y32269336D01*
X20956938Y32271307D01*
X20985875Y32292970D01*
X21034255Y32341351D01*
X21038698Y32349490D01*
X21046119Y32355044D01*
X21050939Y32367968D01*
X21059975Y32378395D01*
X21061938Y32392052D01*
X21068549Y32404158D01*
X21067887Y32413405D01*
X21071128Y32422092D01*
X21068195Y32435573D01*
X21070159Y32449227D01*
X21064428Y32461776D01*
X21063444Y32475536D01*
X21057888Y32482957D01*
X21055918Y32492017D01*
X21042325Y32510175D01*
X21040432Y32514320D01*
X21038100Y32515819D01*
X21034255Y32520955D01*
X20985875Y32569336D01*
X20977735Y32573781D01*
X20972180Y32581202D01*
X20946825Y32590659D01*
X20923069Y32603631D01*
X20913819Y32602970D01*
X20905132Y32606210D01*
X20878687Y32600458D01*
X20851692Y32598527D01*
X20844268Y32592971D01*
X20835207Y32590999D01*
X20806269Y32569337D01*
X20757888Y32520956D01*
X20753443Y32512818D01*
X20746022Y32507261D01*
X20741201Y32494336D01*
X20732168Y32483911D01*
X20730204Y32470257D01*
X20723594Y32458149D01*
X20724255Y32448901D01*
X20721015Y32440213D01*
X19656633Y32440213D01*
X19656633Y33060106D01*
X20140119Y33060106D01*
X20143362Y33049061D01*
X20142126Y33037613D01*
X20153527Y33003310D01*
X20201908Y32906548D01*
X20203528Y32904806D01*
X20204035Y32902479D01*
X20225697Y32873541D01*
X20274078Y32825160D01*
X20276167Y32824019D01*
X20277383Y32821973D01*
X20307085Y32801371D01*
X20403847Y32752990D01*
X20415176Y32750952D01*
X20424863Y32744726D01*
X20460643Y32739582D01*
X20750929Y32739582D01*
X20761974Y32742826D01*
X20773422Y32741589D01*
X20807725Y32752990D01*
X20904487Y32801371D01*
X20906229Y32802992D01*
X20908556Y32803498D01*
X20937494Y32825160D01*
X20985875Y32873541D01*
X20987016Y32875632D01*
X20989063Y32876847D01*
X21009665Y32906549D01*
X21058045Y33003311D01*
X21060083Y33014642D01*
X21066308Y33024326D01*
X21071452Y33060106D01*
X21071452Y33205249D01*
X21068208Y33216294D01*
X21069445Y33227741D01*
X21058045Y33262044D01*
X21009665Y33358806D01*
X21008043Y33360550D01*
X21007537Y33362876D01*
X20985875Y33391814D01*
X20937494Y33440195D01*
X20935404Y33441337D01*
X20934189Y33443382D01*
X20904487Y33463984D01*
X20807725Y33512365D01*
X20796395Y33514404D01*
X20786709Y33520629D01*
X20750929Y33525773D01*
X20460643Y33525773D01*
X20449597Y33522530D01*
X20438150Y33523766D01*
X20403847Y33512365D01*
X20307085Y33463984D01*
X20305342Y33462364D01*
X20303016Y33461857D01*
X20274078Y33440195D01*
X20225697Y33391814D01*
X20224555Y33389725D01*
X20222510Y33388509D01*
X20201908Y33358807D01*
X20153527Y33262045D01*
X20151488Y33250716D01*
X20145263Y33241029D01*
X20140119Y33205249D01*
X20140119Y33060106D01*
X19656633Y33060106D01*
X19656633Y33816127D01*
X19802745Y33816127D01*
X19832472Y33751034D01*
X19892672Y33712345D01*
X19928452Y33707201D01*
X20799310Y33707201D01*
X20810355Y33710445D01*
X20821803Y33709208D01*
X20856106Y33720609D01*
X20952868Y33768990D01*
X20969514Y33784475D01*
X20989063Y33796085D01*
X21001913Y33814612D01*
X21005264Y33817728D01*
X21005958Y33820444D01*
X21009665Y33825787D01*
X21058045Y33922549D01*
X21070718Y33992978D01*
X21043303Y34059078D01*
X20984503Y34099863D01*
X20912988Y34102384D01*
X20851461Y34065842D01*
X20830859Y34036139D01*
X20801410Y33977242D01*
X20769330Y33961201D01*
X19928452Y33961201D01*
X19859791Y33941040D01*
X19812929Y33886959D01*
X19802745Y33816127D01*
X19656633Y33816127D01*
X19656633Y34375451D01*
X19801776Y34375451D01*
X19804708Y34361972D01*
X19802745Y34348317D01*
X19808474Y34335771D01*
X19809459Y34322009D01*
X19815016Y34314586D01*
X19816987Y34305526D01*
X19830579Y34287368D01*
X19832472Y34283224D01*
X19834802Y34281727D01*
X19838649Y34276588D01*
X19887030Y34228207D01*
X19895168Y34223763D01*
X19900725Y34216341D01*
X19926083Y34206884D01*
X19949837Y34193913D01*
X19959085Y34194575D01*
X19967773Y34191334D01*
X19994217Y34197087D01*
X20021215Y34199017D01*
X20028638Y34204575D01*
X20037698Y34206545D01*
X20066636Y34228207D01*
X20115017Y34276588D01*
X20119461Y34284729D01*
X20126882Y34290283D01*
X20131702Y34303207D01*
X20140737Y34313633D01*
X20142700Y34327288D01*
X20147228Y34335581D01*
X20171139Y34283224D01*
X20231339Y34244535D01*
X20267119Y34239391D01*
X20944452Y34239391D01*
X21013113Y34259552D01*
X21059975Y34313633D01*
X21070159Y34384465D01*
X21040432Y34449558D01*
X20980232Y34488247D01*
X20944452Y34493391D01*
X20267119Y34493391D01*
X20198458Y34473230D01*
X20151596Y34419149D01*
X20147641Y34391646D01*
X20145191Y34397012D01*
X20144207Y34410773D01*
X20138649Y34418197D01*
X20136679Y34427256D01*
X20123086Y34445415D01*
X20121194Y34449558D01*
X20118863Y34451056D01*
X20115017Y34456194D01*
X20066636Y34504575D01*
X20058495Y34509020D01*
X20052941Y34516440D01*
X20027586Y34525897D01*
X20003829Y34538869D01*
X19994580Y34538208D01*
X19985893Y34541448D01*
X19959448Y34535696D01*
X19932451Y34533765D01*
X19925027Y34528208D01*
X19915968Y34526237D01*
X19887030Y34504575D01*
X19838649Y34456194D01*
X19834204Y34448056D01*
X19826783Y34442499D01*
X19821962Y34429574D01*
X19812929Y34419149D01*
X19810965Y34405495D01*
X19804355Y34393387D01*
X19805016Y34384139D01*
X19801776Y34375451D01*
X19656633Y34375451D01*
X19656633Y34995344D01*
X20140119Y34995344D01*
X20143362Y34984299D01*
X20142126Y34972851D01*
X20153527Y34938548D01*
X20164104Y34917394D01*
X20151596Y34902959D01*
X20141412Y34832127D01*
X20171139Y34767034D01*
X20231339Y34728345D01*
X20267119Y34723201D01*
X20944452Y34723201D01*
X21013113Y34743362D01*
X21059975Y34797443D01*
X21070159Y34868275D01*
X21040432Y34933368D01*
X20980232Y34972057D01*
X20944452Y34977201D01*
X20418180Y34977201D01*
X20394119Y35025324D01*
X20394119Y35110507D01*
X20410160Y35142589D01*
X20442242Y35158630D01*
X20944452Y35158630D01*
X21013113Y35178791D01*
X21059975Y35232872D01*
X21070159Y35303704D01*
X21040432Y35368797D01*
X20980232Y35407486D01*
X20944452Y35412630D01*
X20442242Y35412630D01*
X20410160Y35428671D01*
X20394119Y35460753D01*
X20394119Y35545935D01*
X20410160Y35578018D01*
X20442242Y35594058D01*
X20944452Y35594058D01*
X21013113Y35614219D01*
X21059975Y35668300D01*
X21070159Y35739132D01*
X21040432Y35804225D01*
X20980232Y35842914D01*
X20944452Y35848058D01*
X20412262Y35848058D01*
X20401216Y35844815D01*
X20389769Y35846051D01*
X20355466Y35834650D01*
X20258704Y35786269D01*
X20242057Y35770785D01*
X20222510Y35759175D01*
X20209659Y35740649D01*
X20206308Y35737531D01*
X20205613Y35734816D01*
X20201908Y35729473D01*
X20153527Y35632713D01*
X20151487Y35621382D01*
X20145263Y35611696D01*
X20140119Y35575916D01*
X20140119Y35430773D01*
X20143362Y35419728D01*
X20142126Y35408280D01*
X20153527Y35373977D01*
X20197700Y35285630D01*
X20153527Y35197283D01*
X20151488Y35185954D01*
X20145263Y35176267D01*
X20140119Y35140487D01*
X20140119Y34995344D01*
X19656633Y34995344D01*
X19656633Y36301630D01*
X20140119Y36301630D01*
X20143362Y36290585D01*
X20142126Y36279137D01*
X20153527Y36244834D01*
X20201908Y36148072D01*
X20217391Y36131427D01*
X20229002Y36111878D01*
X20247528Y36099028D01*
X20250646Y36095676D01*
X20253361Y36094982D01*
X20258704Y36091276D01*
X20355466Y36042895D01*
X20366795Y36040857D01*
X20376482Y36034631D01*
X20412262Y36029487D01*
X20799310Y36029487D01*
X20810355Y36032731D01*
X20821803Y36031494D01*
X20856106Y36042895D01*
X20952868Y36091276D01*
X20969514Y36106761D01*
X20989063Y36118371D01*
X21001913Y36136898D01*
X21005264Y36140014D01*
X21005958Y36142730D01*
X21009665Y36148073D01*
X21058045Y36244835D01*
X21060083Y36256166D01*
X21066308Y36265850D01*
X21071452Y36301630D01*
X21071452Y36495154D01*
X21068208Y36506199D01*
X21069445Y36517646D01*
X21058045Y36551949D01*
X21009665Y36648711D01*
X20960926Y36701108D01*
X20891598Y36718837D01*
X20823689Y36696269D01*
X20778762Y36640571D01*
X20771079Y36569424D01*
X20782479Y36535121D01*
X20817452Y36465174D01*
X20817452Y36331611D01*
X20801410Y36299528D01*
X20769330Y36283487D01*
X20709901Y36283487D01*
X20633558Y36665204D01*
X20618481Y36693954D01*
X20605004Y36723464D01*
X20601988Y36725402D01*
X20600323Y36728578D01*
X20572104Y36744608D01*
X20544804Y36762153D01*
X20540002Y36762844D01*
X20538102Y36763923D01*
X20534037Y36763701D01*
X20509024Y36767297D01*
X20412262Y36767297D01*
X20401216Y36764054D01*
X20389769Y36765290D01*
X20355466Y36753889D01*
X20258704Y36705508D01*
X20242057Y36690024D01*
X20222510Y36678414D01*
X20209659Y36659888D01*
X20206308Y36656770D01*
X20205613Y36654055D01*
X20201908Y36648712D01*
X20153527Y36551950D01*
X20151488Y36540621D01*
X20145263Y36530934D01*
X20140119Y36495154D01*
X20140119Y36301630D01*
X19656633Y36301630D01*
X19656633Y37505057D01*
X20140266Y37505057D01*
X20163699Y37437442D01*
X20188656Y37411292D01*
X20400225Y37245059D01*
X20188656Y37078825D01*
X20147122Y37020552D01*
X20143686Y36949075D01*
X20179440Y36887087D01*
X20243031Y36854269D01*
X20314270Y36861040D01*
X20345582Y36879101D01*
X20605785Y37083547D01*
X20865988Y36879101D01*
X20932434Y36852534D01*
X21002694Y36866106D01*
X21054464Y36915511D01*
X21071305Y36985060D01*
X21047871Y37052675D01*
X21022915Y37078826D01*
X20811346Y37245059D01*
X21022915Y37411291D01*
X21064449Y37469565D01*
X21067885Y37541042D01*
X21032131Y37603030D01*
X20968540Y37635848D01*
X20897301Y37629077D01*
X20865988Y37611016D01*
X20605785Y37406571D01*
X20345582Y37611016D01*
X20279137Y37637584D01*
X20208876Y37624011D01*
X20157107Y37574607D01*
X20140266Y37505057D01*
X19656633Y37505057D01*
X19656633Y37907261D01*
X20721015Y37907261D01*
X20723947Y37893782D01*
X20721984Y37880127D01*
X20727713Y37867581D01*
X20728698Y37853819D01*
X20734255Y37846396D01*
X20736226Y37837336D01*
X20749818Y37819178D01*
X20751711Y37815034D01*
X20754041Y37813537D01*
X20757888Y37808398D01*
X20806269Y37760017D01*
X20814409Y37755573D01*
X20819965Y37748151D01*
X20845319Y37738695D01*
X20869076Y37725723D01*
X20878325Y37726385D01*
X20887013Y37723144D01*
X20913457Y37728897D01*
X20940454Y37730827D01*
X20947876Y37736384D01*
X20956938Y37738355D01*
X20985875Y37760018D01*
X21034255Y37808399D01*
X21038698Y37816538D01*
X21046119Y37822092D01*
X21050939Y37835016D01*
X21059975Y37845443D01*
X21061938Y37859100D01*
X21068549Y37871206D01*
X21067887Y37880453D01*
X21071128Y37889140D01*
X21068195Y37902621D01*
X21070159Y37916275D01*
X21064428Y37928824D01*
X21063444Y37942584D01*
X21057888Y37950005D01*
X21055918Y37959065D01*
X21042325Y37977223D01*
X21040432Y37981368D01*
X21038100Y37982867D01*
X21034255Y37988003D01*
X20985875Y38036384D01*
X20977735Y38040829D01*
X20972180Y38048250D01*
X20946825Y38057707D01*
X20923069Y38070679D01*
X20913819Y38070018D01*
X20905132Y38073258D01*
X20878687Y38067506D01*
X20851692Y38065575D01*
X20844268Y38060019D01*
X20835207Y38058047D01*
X20806269Y38036385D01*
X20757888Y37988004D01*
X20753443Y37979866D01*
X20746022Y37974309D01*
X20741201Y37961384D01*
X20732168Y37950959D01*
X20730204Y37937305D01*
X20723594Y37925197D01*
X20724255Y37915949D01*
X20721015Y37907261D01*
X19656633Y37907261D01*
X19656633Y38527154D01*
X20140119Y38527154D01*
X20143362Y38516109D01*
X20142126Y38504661D01*
X20153527Y38470358D01*
X20201908Y38373596D01*
X20203528Y38371854D01*
X20204035Y38369527D01*
X20225697Y38340589D01*
X20274078Y38292208D01*
X20276167Y38291067D01*
X20277383Y38289021D01*
X20307085Y38268419D01*
X20403847Y38220038D01*
X20415176Y38218000D01*
X20424863Y38211774D01*
X20460643Y38206630D01*
X20750929Y38206630D01*
X20761974Y38209874D01*
X20773422Y38208637D01*
X20807725Y38220038D01*
X20904487Y38268419D01*
X20906229Y38270040D01*
X20908556Y38270546D01*
X20937494Y38292208D01*
X20985875Y38340589D01*
X20987016Y38342680D01*
X20989063Y38343895D01*
X21009665Y38373597D01*
X21058045Y38470359D01*
X21060083Y38481690D01*
X21066308Y38491374D01*
X21071452Y38527154D01*
X21071452Y38720678D01*
X21068208Y38731723D01*
X21069445Y38743170D01*
X21058045Y38777473D01*
X21009665Y38874235D01*
X20960926Y38926632D01*
X20891598Y38944361D01*
X20823689Y38921793D01*
X20778762Y38866095D01*
X20771079Y38794948D01*
X20782479Y38760645D01*
X20817452Y38690698D01*
X20817452Y38557135D01*
X20791696Y38505623D01*
X20772459Y38486385D01*
X20720949Y38460630D01*
X20490623Y38460630D01*
X20439113Y38486385D01*
X20419874Y38505624D01*
X20394119Y38557134D01*
X20394119Y38690698D01*
X20429092Y38760644D01*
X20441766Y38831072D01*
X20414352Y38897173D01*
X20355552Y38937959D01*
X20284037Y38940480D01*
X20222510Y38903938D01*
X20201908Y38874236D01*
X20153527Y38777474D01*
X20151488Y38766145D01*
X20145263Y38756458D01*
X20140119Y38720678D01*
X20140119Y38527154D01*
X19656633Y38527154D01*
X19656633Y39398011D01*
X20140119Y39398011D01*
X20143362Y39386966D01*
X20142126Y39375518D01*
X20153527Y39341215D01*
X20201908Y39244453D01*
X20203528Y39242711D01*
X20204035Y39240384D01*
X20225697Y39211446D01*
X20274078Y39163065D01*
X20276167Y39161924D01*
X20277383Y39159878D01*
X20307085Y39139276D01*
X20403847Y39090895D01*
X20415176Y39088857D01*
X20424863Y39082631D01*
X20460643Y39077487D01*
X20750929Y39077487D01*
X20761974Y39080731D01*
X20773422Y39079494D01*
X20807725Y39090895D01*
X20904487Y39139276D01*
X20906229Y39140897D01*
X20908556Y39141403D01*
X20937494Y39163065D01*
X20985875Y39211446D01*
X20987016Y39213537D01*
X20989063Y39214752D01*
X21009665Y39244454D01*
X21058045Y39341216D01*
X21060083Y39352547D01*
X21066308Y39362231D01*
X21071452Y39398011D01*
X21071452Y39543154D01*
X21068208Y39554199D01*
X21069445Y39565646D01*
X21058045Y39599949D01*
X21009665Y39696711D01*
X21008043Y39698455D01*
X21007537Y39700781D01*
X20985875Y39729719D01*
X20937494Y39778100D01*
X20935404Y39779242D01*
X20934189Y39781287D01*
X20904487Y39801889D01*
X20807725Y39850270D01*
X20796395Y39852309D01*
X20786709Y39858534D01*
X20750929Y39863678D01*
X20460643Y39863678D01*
X20449597Y39860435D01*
X20438150Y39861671D01*
X20403847Y39850270D01*
X20307085Y39801889D01*
X20305342Y39800269D01*
X20303016Y39799762D01*
X20274078Y39778100D01*
X20225697Y39729719D01*
X20224555Y39727630D01*
X20222510Y39726414D01*
X20201908Y39696712D01*
X20153527Y39599950D01*
X20151488Y39588621D01*
X20145263Y39578934D01*
X20140119Y39543154D01*
X20140119Y39398011D01*
X19656633Y39398011D01*
X19656633Y40317249D01*
X20140119Y40317249D01*
X20143362Y40306204D01*
X20142126Y40294756D01*
X20153527Y40260453D01*
X20164104Y40239299D01*
X20151596Y40224864D01*
X20141412Y40154032D01*
X20171139Y40088939D01*
X20231339Y40050250D01*
X20267119Y40045106D01*
X20944452Y40045106D01*
X21013113Y40065267D01*
X21059975Y40119348D01*
X21070159Y40190180D01*
X21040432Y40255273D01*
X20980232Y40293962D01*
X20944452Y40299106D01*
X20418180Y40299106D01*
X20394119Y40347229D01*
X20394119Y40432412D01*
X20410160Y40464494D01*
X20442242Y40480535D01*
X20944452Y40480535D01*
X21013113Y40500696D01*
X21059975Y40554777D01*
X21070159Y40625609D01*
X21040432Y40690702D01*
X20980232Y40729391D01*
X20944452Y40734535D01*
X20442242Y40734535D01*
X20410160Y40750576D01*
X20394119Y40782658D01*
X20394119Y40867840D01*
X20410160Y40899923D01*
X20442242Y40915963D01*
X20944452Y40915963D01*
X21013113Y40936124D01*
X21059975Y40990205D01*
X21070159Y41061037D01*
X21040432Y41126130D01*
X20980232Y41164819D01*
X20944452Y41169963D01*
X20412262Y41169963D01*
X20401216Y41166720D01*
X20389769Y41167956D01*
X20355466Y41156555D01*
X20258704Y41108174D01*
X20242057Y41092690D01*
X20222510Y41081080D01*
X20209659Y41062554D01*
X20206308Y41059436D01*
X20205613Y41056721D01*
X20201908Y41051378D01*
X20153527Y40954618D01*
X20151487Y40943287D01*
X20145263Y40933601D01*
X20140119Y40897821D01*
X20140119Y40752678D01*
X20143362Y40741633D01*
X20142126Y40730185D01*
X20153527Y40695882D01*
X20197700Y40607535D01*
X20153527Y40519188D01*
X20151488Y40507859D01*
X20145263Y40498172D01*
X20140119Y40462392D01*
X20140119Y40317249D01*
X19656633Y40317249D01*
X19656633Y41315106D01*
X21216595Y41315106D01*
X21216595Y28869108D01*
G37*
G36*
X8198343Y29837405D02*
G01*
X7026397Y29837405D01*
X7026397Y30091474D01*
X7171540Y30091474D01*
X7177270Y30078927D01*
X7178254Y30065167D01*
X7191845Y30047011D01*
X7201267Y30026381D01*
X7212872Y30018923D01*
X7221139Y30007880D01*
X7242384Y29999956D01*
X7261467Y29987692D01*
X7283918Y29984465D01*
X7288187Y29982872D01*
X7290895Y29983462D01*
X7297247Y29982548D01*
X7926200Y29982548D01*
X7994861Y30002709D01*
X8041723Y30056790D01*
X8051907Y30127622D01*
X8022180Y30192715D01*
X7961980Y30231404D01*
X7926200Y30236548D01*
X7603852Y30236548D01*
X7967621Y30600316D01*
X7973138Y30610421D01*
X7982107Y30617641D01*
X7998302Y30649958D01*
X8046683Y30795101D01*
X8046769Y30797480D01*
X8048056Y30799482D01*
X8053200Y30835262D01*
X8053200Y30932024D01*
X8049956Y30943070D01*
X8051193Y30954517D01*
X8039792Y30988820D01*
X7991411Y31085582D01*
X7989790Y31087325D01*
X7989284Y31089651D01*
X7967622Y31118589D01*
X7919241Y31166970D01*
X7917151Y31168112D01*
X7915936Y31170157D01*
X7886234Y31190759D01*
X7789472Y31239140D01*
X7778142Y31241179D01*
X7768456Y31247404D01*
X7732676Y31252548D01*
X7490771Y31252548D01*
X7479725Y31249305D01*
X7468278Y31250541D01*
X7433975Y31239140D01*
X7337213Y31190759D01*
X7335470Y31189139D01*
X7333144Y31188632D01*
X7304206Y31166970D01*
X7255825Y31118589D01*
X7221531Y31055782D01*
X7226635Y30984404D01*
X7269520Y30927117D01*
X7336568Y30902110D01*
X7406493Y30917321D01*
X7435431Y30938983D01*
X7469241Y30972793D01*
X7520751Y30998548D01*
X7702696Y30998548D01*
X7754206Y30972793D01*
X7773445Y30953554D01*
X7799200Y30902044D01*
X7799200Y30855872D01*
X7766817Y30758723D01*
X7207445Y30199351D01*
X7196576Y30179447D01*
X7181724Y30162306D01*
X7179760Y30148651D01*
X7173150Y30136544D01*
X7174767Y30113923D01*
X7171540Y30091474D01*
X7026397Y30091474D01*
X7026397Y31397691D01*
X8198343Y31397691D01*
X8198343Y29837405D01*
G37*
G36*
X5721628Y11507056D02*
G01*
X5740867Y11487817D01*
X5766622Y11436307D01*
X5766622Y11254620D01*
X5536812Y11254620D01*
X5536812Y11436307D01*
X5562567Y11487817D01*
X5581806Y11507056D01*
X5633316Y11532811D01*
X5670118Y11532811D01*
X5721628Y11507056D01*
G37*
G36*
X6253819Y11555437D02*
G01*
X6273056Y11536200D01*
X6298812Y11484688D01*
X6298812Y11254620D01*
X6020622Y11254620D01*
X6020622Y11445677D01*
X6053005Y11542826D01*
X6065616Y11555437D01*
X6117126Y11581192D01*
X6202309Y11581192D01*
X6253819Y11555437D01*
G37*
G36*
X6008527Y12271443D02*
G01*
X5811421Y12337144D01*
X6008527Y12402846D01*
X6008527Y12271443D01*
G37*
G36*
X6697955Y10855477D02*
G01*
X5137669Y10855477D01*
X5137669Y11127620D01*
X5282812Y11127620D01*
X5285424Y11118723D01*
X5284105Y11109546D01*
X5295347Y11084928D01*
X5302973Y11058959D01*
X5309980Y11052888D01*
X5313832Y11044453D01*
X5336600Y11029821D01*
X5357054Y11012097D01*
X5366230Y11010778D01*
X5374032Y11005764D01*
X5409812Y11000620D01*
X6425812Y11000620D01*
X6434709Y11003233D01*
X6443886Y11001913D01*
X6468504Y11013156D01*
X6494473Y11020781D01*
X6500544Y11027789D01*
X6508979Y11031640D01*
X6523611Y11054409D01*
X6541335Y11074862D01*
X6542654Y11084039D01*
X6547668Y11091840D01*
X6552812Y11127620D01*
X6552812Y11514668D01*
X6549568Y11525713D01*
X6550805Y11537160D01*
X6539405Y11571463D01*
X6491025Y11668225D01*
X6489403Y11669969D01*
X6488897Y11672295D01*
X6467235Y11701233D01*
X6418854Y11749614D01*
X6416764Y11750756D01*
X6415549Y11752801D01*
X6385847Y11773403D01*
X6289085Y11821784D01*
X6277755Y11823823D01*
X6268069Y11830048D01*
X6232289Y11835192D01*
X6087146Y11835192D01*
X6076100Y11831949D01*
X6064653Y11833185D01*
X6030350Y11821784D01*
X5933588Y11773403D01*
X5931845Y11771783D01*
X5929519Y11771276D01*
X5900581Y11749614D01*
X5866842Y11715876D01*
X5853656Y11725022D01*
X5756894Y11773403D01*
X5745564Y11775442D01*
X5735878Y11781667D01*
X5700098Y11786811D01*
X5603336Y11786811D01*
X5592290Y11783568D01*
X5580843Y11784804D01*
X5546540Y11773403D01*
X5449778Y11725022D01*
X5448035Y11723402D01*
X5445709Y11722895D01*
X5416771Y11701233D01*
X5368390Y11652852D01*
X5367248Y11650763D01*
X5365203Y11649547D01*
X5344601Y11619845D01*
X5296220Y11523083D01*
X5294181Y11511754D01*
X5287956Y11502067D01*
X5282812Y11466287D01*
X5282812Y11127620D01*
X5137669Y11127620D01*
X5137669Y12350663D01*
X5283534Y12350663D01*
X5289118Y12319790D01*
X5292458Y12288596D01*
X5295427Y12284908D01*
X5296271Y12280245D01*
X5317661Y12257291D01*
X5337334Y12232856D01*
X5343146Y12229944D01*
X5345057Y12227893D01*
X5349492Y12226764D01*
X5369651Y12216661D01*
X6385651Y11877994D01*
X6457164Y11875408D01*
X6518723Y11911895D01*
X6550783Y11975871D01*
X6543166Y12047025D01*
X6498290Y12102765D01*
X6465973Y12118960D01*
X6262527Y12186776D01*
X6262527Y12487513D01*
X6465973Y12555328D01*
X6524735Y12596167D01*
X6552090Y12662292D01*
X6539352Y12732710D01*
X6490567Y12785062D01*
X6421221Y12802728D01*
X6385651Y12796294D01*
X5369651Y12457627D01*
X5343884Y12439720D01*
X5316901Y12423726D01*
X5314778Y12419492D01*
X5310889Y12416788D01*
X5298897Y12387801D01*
X5284840Y12359750D01*
X5285344Y12355040D01*
X5283534Y12350663D01*
X5137669Y12350663D01*
X5137669Y12869334D01*
X5282812Y12869334D01*
X5302973Y12800673D01*
X5357054Y12753811D01*
X5427886Y12743627D01*
X5492979Y12773354D01*
X5531668Y12833554D01*
X5536812Y12869334D01*
X5536812Y13032620D01*
X6425812Y13032620D01*
X6494473Y13052781D01*
X6541335Y13106862D01*
X6551519Y13177694D01*
X6521792Y13242787D01*
X6461592Y13281476D01*
X6425812Y13286620D01*
X5536812Y13286620D01*
X5536812Y13449906D01*
X5516651Y13518567D01*
X5462570Y13565429D01*
X5391738Y13575613D01*
X5326645Y13545886D01*
X5287956Y13485686D01*
X5282812Y13449906D01*
X5282812Y12869334D01*
X5137669Y12869334D01*
X5137669Y14014518D01*
X5283819Y14014518D01*
X5284262Y14013502D01*
X5284105Y14012403D01*
X5298539Y13980795D01*
X5312448Y13948934D01*
X5313535Y13947960D01*
X5313832Y13947310D01*
X5315343Y13946339D01*
X5339365Y13924807D01*
X5474041Y13835023D01*
X5547342Y13761723D01*
X5586506Y13683395D01*
X5635244Y13630999D01*
X5704573Y13613270D01*
X5772482Y13635838D01*
X5817408Y13691537D01*
X5825091Y13762684D01*
X5813690Y13796987D01*
X5765309Y13893749D01*
X5763688Y13895492D01*
X5763182Y13897818D01*
X5758946Y13903477D01*
X6298812Y13903477D01*
X6298812Y13740191D01*
X6318973Y13671530D01*
X6373054Y13624668D01*
X6443886Y13614484D01*
X6508979Y13644211D01*
X6547668Y13704411D01*
X6552812Y13740191D01*
X6552812Y14320763D01*
X6532651Y14389424D01*
X6478570Y14436286D01*
X6407738Y14446470D01*
X6342645Y14416743D01*
X6303956Y14356543D01*
X6298812Y14320763D01*
X6298812Y14157477D01*
X5409812Y14157477D01*
X5376471Y14147688D01*
X5342956Y14138455D01*
X5342215Y14137629D01*
X5341151Y14137316D01*
X5318382Y14111040D01*
X5295192Y14085168D01*
X5295015Y14084074D01*
X5294289Y14083235D01*
X5289341Y14048826D01*
X5283819Y14014518D01*
X5137669Y14014518D01*
X5137669Y14591613D01*
X6697955Y14591613D01*
X6697955Y10855477D01*
G37*
X4099932Y12425007D02*
X4099932Y11796435D01*
X4099932Y12110721D02*
X2999932Y12110721D01*
X2999932Y12110721D02*
X3157075Y12005959D01*
X3157075Y12005959D02*
X3261837Y11901197D01*
X3261837Y11901197D02*
X3314218Y11796435D01*
D11*
G36*
X7475305Y9578495D02*
G01*
X7486337Y9567463D01*
X7508874Y9522388D01*
X7508874Y9447854D01*
X7486337Y9402781D01*
X7469505Y9385949D01*
X7424434Y9363413D01*
X7223124Y9363413D01*
X7223124Y9606830D01*
X7390301Y9606830D01*
X7475305Y9578495D01*
G37*
G36*
X7427174Y10007626D02*
G01*
X7444004Y9990796D01*
X7466541Y9945723D01*
X7466541Y9913522D01*
X7444004Y9868448D01*
X7427174Y9851618D01*
X7382100Y9829080D01*
X7223124Y9829080D01*
X7223124Y10030163D01*
X7382100Y10030163D01*
X7427174Y10007626D01*
G37*
G36*
X10689019Y9014163D02*
G01*
X5095874Y9014163D01*
X5095874Y9421621D01*
X5222874Y9421621D01*
X5230790Y9397258D01*
X5234606Y9371923D01*
X5276940Y9287257D01*
X5289579Y9274425D01*
X5297755Y9258379D01*
X5340088Y9216044D01*
X5356139Y9207866D01*
X5368970Y9195228D01*
X5453637Y9152895D01*
X5478967Y9149080D01*
X5503333Y9141163D01*
X5672666Y9141163D01*
X5697031Y9149080D01*
X5722362Y9152895D01*
X5807029Y9195227D01*
X5819863Y9207868D01*
X5835911Y9216045D01*
X5878244Y9258379D01*
X5886420Y9274426D01*
X5899059Y9287258D01*
X5941392Y9371924D01*
X5945207Y9397257D01*
X5953124Y9421621D01*
X5953124Y9887288D01*
X6111874Y9887288D01*
X6119790Y9862923D01*
X6123606Y9837592D01*
X6165938Y9752925D01*
X6178578Y9740091D01*
X6186756Y9724043D01*
X6229090Y9681710D01*
X6245136Y9673534D01*
X6257969Y9660895D01*
X6342635Y9618562D01*
X6354881Y9616718D01*
X6365380Y9610148D01*
X6522879Y9570773D01*
X6580507Y9541959D01*
X6597337Y9525129D01*
X6619874Y9480055D01*
X6619874Y9447854D01*
X6597337Y9402781D01*
X6580507Y9385950D01*
X6535433Y9363413D01*
X6368031Y9363413D01*
X6258140Y9400044D01*
X6189462Y9400565D01*
X6133596Y9360619D01*
X6111877Y9295464D01*
X6132604Y9229988D01*
X6187858Y9189198D01*
X6314859Y9146865D01*
X6332870Y9146729D01*
X6349999Y9141163D01*
X6561666Y9141163D01*
X6586030Y9149080D01*
X6611363Y9152895D01*
X6696028Y9195228D01*
X6708860Y9207867D01*
X6724909Y9216044D01*
X6761153Y9252288D01*
X7000874Y9252288D01*
X7006313Y9235549D01*
X7006313Y9217948D01*
X7016658Y9203710D01*
X7022097Y9186970D01*
X7036335Y9176625D01*
X7046681Y9162386D01*
X7063420Y9156948D01*
X7077659Y9146602D01*
X7095259Y9146602D01*
X7111999Y9141163D01*
X7450666Y9141163D01*
X7475031Y9149080D01*
X7500362Y9152895D01*
X7585029Y9195227D01*
X7597863Y9207868D01*
X7613911Y9216045D01*
X7656244Y9258379D01*
X7664420Y9274426D01*
X7677059Y9287258D01*
X7719392Y9371924D01*
X7723207Y9397257D01*
X7731124Y9421621D01*
X7731124Y9548621D01*
X7728527Y9556615D01*
X7895313Y9556615D01*
X7935681Y9501053D01*
X8000999Y9479830D01*
X8678333Y9479830D01*
X8743651Y9501053D01*
X8784019Y9556615D01*
X8784019Y9625295D01*
X8778212Y9633288D01*
X8948208Y9633288D01*
X8952481Y9620134D01*
X8951526Y9606336D01*
X8993859Y9437004D01*
X9000428Y9426506D01*
X9002273Y9414258D01*
X9044607Y9329591D01*
X9057244Y9316760D01*
X9065422Y9300711D01*
X9150089Y9216044D01*
X9172912Y9204415D01*
X9193525Y9189198D01*
X9320526Y9146865D01*
X9338537Y9146729D01*
X9355666Y9141163D01*
X9440333Y9141163D01*
X9457461Y9146729D01*
X9475474Y9146865D01*
X9602474Y9189199D01*
X9623085Y9204415D01*
X9645911Y9216045D01*
X9688244Y9258379D01*
X9719424Y9319573D01*
X9708679Y9387406D01*
X9660114Y9435969D01*
X9592281Y9446712D01*
X9531088Y9415532D01*
X9507305Y9391749D01*
X9422298Y9363413D01*
X9373698Y9363413D01*
X9288692Y9391749D01*
X9235328Y9445115D01*
X9206514Y9502742D01*
X9170458Y9646968D01*
X9170458Y9746609D01*
X9201490Y9870739D01*
X9838447Y9870739D01*
X9869162Y9809310D01*
X9930116Y9777666D01*
X9998029Y9787895D01*
X10082696Y9830227D01*
X10091208Y9838611D01*
X10091208Y9363413D01*
X9948333Y9363413D01*
X9883015Y9342190D01*
X9842647Y9286628D01*
X9842647Y9217948D01*
X9883015Y9162386D01*
X9948333Y9141163D01*
X10456333Y9141163D01*
X10521651Y9162386D01*
X10562019Y9217948D01*
X10562019Y9286628D01*
X10521651Y9342190D01*
X10456333Y9363413D01*
X10313458Y9363413D01*
X10313458Y10141288D01*
X10312734Y10143514D01*
X10313368Y10145767D01*
X10302186Y10175979D01*
X10292235Y10206606D01*
X10290341Y10207982D01*
X10289530Y10210175D01*
X10262742Y10228034D01*
X10236673Y10246974D01*
X10234332Y10246974D01*
X10232385Y10248272D01*
X10200206Y10246974D01*
X10167993Y10246974D01*
X10166099Y10245599D01*
X10163762Y10245504D01*
X10138494Y10225543D01*
X10112431Y10206606D01*
X10111707Y10204381D01*
X10109871Y10202929D01*
X10031308Y10085085D01*
X9967172Y10020949D01*
X9898637Y9986681D01*
X9849706Y9938488D01*
X9838447Y9870739D01*
X9201490Y9870739D01*
X9206514Y9890835D01*
X9235328Y9948462D01*
X9288692Y10001828D01*
X9373698Y10030163D01*
X9422298Y10030163D01*
X9507305Y10001828D01*
X9531088Y9978044D01*
X9592281Y9946864D01*
X9660114Y9957607D01*
X9708679Y10006170D01*
X9719424Y10074003D01*
X9688244Y10135197D01*
X9645911Y10177531D01*
X9623085Y10189162D01*
X9602474Y10204377D01*
X9475474Y10246711D01*
X9457461Y10246848D01*
X9440333Y10252413D01*
X9355666Y10252413D01*
X9338537Y10246848D01*
X9320526Y10246711D01*
X9193525Y10204378D01*
X9172912Y10189162D01*
X9150089Y10177532D01*
X9065422Y10092865D01*
X9057244Y10076817D01*
X9044607Y10063985D01*
X9002273Y9979318D01*
X9000428Y9967071D01*
X8993859Y9956572D01*
X8951526Y9787240D01*
X8952481Y9773443D01*
X8948208Y9760288D01*
X8948208Y9633288D01*
X8778212Y9633288D01*
X8743651Y9680857D01*
X8678333Y9702080D01*
X8000999Y9702080D01*
X7935681Y9680857D01*
X7895313Y9625295D01*
X7895313Y9556615D01*
X7728527Y9556615D01*
X7723207Y9572987D01*
X7719392Y9598317D01*
X7677059Y9682984D01*
X7664420Y9695817D01*
X7656243Y9711865D01*
X7625028Y9743080D01*
X7634726Y9752925D01*
X7677059Y9837592D01*
X7680874Y9862923D01*
X7688791Y9887288D01*
X7688791Y9971955D01*
X7680874Y9996320D01*
X7677059Y10021652D01*
X7634726Y10106318D01*
X7622086Y10119152D01*
X7613910Y10135198D01*
X7571576Y10177532D01*
X7555527Y10185710D01*
X7542695Y10198348D01*
X7458030Y10240681D01*
X7432697Y10244497D01*
X7408333Y10252413D01*
X7111999Y10252413D01*
X7095259Y10246974D01*
X7077659Y10246974D01*
X7063420Y10236629D01*
X7046681Y10231190D01*
X7036335Y10216952D01*
X7022097Y10206606D01*
X7016658Y10189867D01*
X7006313Y10175628D01*
X7006313Y10158028D01*
X7000874Y10141288D01*
X7000874Y9252288D01*
X6761153Y9252288D01*
X6767243Y9258378D01*
X6775419Y9274425D01*
X6788059Y9287258D01*
X6830392Y9371924D01*
X6834207Y9397257D01*
X6842124Y9421621D01*
X6842124Y9506288D01*
X6834207Y9530654D01*
X6830392Y9555984D01*
X6788059Y9640651D01*
X6775421Y9653482D01*
X6767243Y9669533D01*
X6724908Y9711866D01*
X6708859Y9720043D01*
X6696028Y9732681D01*
X6611363Y9775014D01*
X6599116Y9776859D01*
X6588618Y9783428D01*
X6431116Y9822804D01*
X6373491Y9851617D01*
X6356659Y9868449D01*
X6334124Y9913520D01*
X6334124Y9945722D01*
X6356661Y9990796D01*
X6373491Y10007627D01*
X6418564Y10030163D01*
X6585964Y10030163D01*
X6695859Y9993532D01*
X6764536Y9993011D01*
X6820403Y10032956D01*
X6842121Y10098112D01*
X6821395Y10163588D01*
X6766140Y10204377D01*
X6639140Y10246711D01*
X6621127Y10246848D01*
X6603999Y10252413D01*
X6392332Y10252413D01*
X6367967Y10244497D01*
X6342635Y10240681D01*
X6257969Y10198348D01*
X6245135Y10185709D01*
X6229089Y10177532D01*
X6186755Y10135198D01*
X6178577Y10119150D01*
X6165939Y10106317D01*
X6123606Y10021652D01*
X6119790Y9996320D01*
X6111874Y9971955D01*
X6111874Y9887288D01*
X5953124Y9887288D01*
X5953124Y10141288D01*
X5931901Y10206606D01*
X5876339Y10246974D01*
X5807659Y10246974D01*
X5752097Y10206606D01*
X5730874Y10141288D01*
X5730874Y9447854D01*
X5708337Y9402781D01*
X5691505Y9385949D01*
X5646434Y9363413D01*
X5529566Y9363413D01*
X5484492Y9385950D01*
X5467662Y9402780D01*
X5445124Y9447856D01*
X5445124Y10141288D01*
X5423901Y10206606D01*
X5368339Y10246974D01*
X5299659Y10246974D01*
X5244097Y10206606D01*
X5222874Y10141288D01*
X5222874Y9421621D01*
X5095874Y9421621D01*
X5095874Y10379413D01*
X10689019Y10379413D01*
X10689019Y9014163D01*
G37*
D12*
G36*
X5109645Y31138296D02*
G01*
X4961816Y31187572D01*
X5109645Y31236849D01*
X5109645Y31138296D01*
G37*
G36*
X4930757Y32016435D02*
G01*
X4945183Y32002008D01*
X4964502Y31963372D01*
X4964502Y31790822D01*
X4755859Y31790822D01*
X4755859Y31963372D01*
X4775176Y32002007D01*
X4789603Y32016434D01*
X4828238Y32035751D01*
X4892124Y32035751D01*
X4930757Y32016435D01*
G37*
G36*
X5626716Y29241750D02*
G01*
X4456502Y29241750D01*
X4456502Y29699857D01*
X4565359Y29699857D01*
X4570129Y29685174D01*
X4570247Y29669736D01*
X4606533Y29560879D01*
X4619573Y29543214D01*
X4629543Y29523648D01*
X4702114Y29451077D01*
X4715870Y29444068D01*
X4726869Y29433235D01*
X4799441Y29396949D01*
X4809937Y29395369D01*
X4818936Y29389737D01*
X4964079Y29353451D01*
X4975905Y29354271D01*
X4987181Y29350607D01*
X5096038Y29350607D01*
X5107313Y29354271D01*
X5119140Y29353451D01*
X5264283Y29389737D01*
X5273281Y29395368D01*
X5283779Y29396949D01*
X5356350Y29433235D01*
X5367349Y29444070D01*
X5381103Y29451077D01*
X5453676Y29523648D01*
X5463646Y29543217D01*
X5476686Y29560880D01*
X5512971Y29669737D01*
X5513088Y29685174D01*
X5517859Y29699857D01*
X5517859Y29772429D01*
X5513088Y29787113D01*
X5512971Y29802549D01*
X5476686Y29911406D01*
X5463646Y29929071D01*
X5453676Y29948638D01*
X5417390Y29984924D01*
X5364938Y30011650D01*
X5306796Y30002440D01*
X5265170Y29960814D01*
X5255960Y29902672D01*
X5282686Y29850220D01*
X5303072Y29829834D01*
X5327359Y29756974D01*
X5327359Y29715313D01*
X5303072Y29642453D01*
X5257331Y29596712D01*
X5207934Y29572013D01*
X5084312Y29541107D01*
X4998907Y29541107D01*
X4875282Y29572014D01*
X4825889Y29596710D01*
X4780146Y29642453D01*
X4755859Y29715315D01*
X4755859Y29756972D01*
X4780146Y29829834D01*
X4800533Y29850220D01*
X4827259Y29902672D01*
X4818049Y29960814D01*
X4776423Y30002440D01*
X4718281Y30011650D01*
X4665829Y29984924D01*
X4629543Y29948638D01*
X4619573Y29929073D01*
X4606533Y29911407D01*
X4570247Y29802550D01*
X4570129Y29787113D01*
X4565359Y29772429D01*
X4565359Y29699857D01*
X4456502Y29699857D01*
X4456502Y30214709D01*
X4570021Y30214709D01*
X4604622Y30167084D01*
X4660609Y30148893D01*
X5422609Y30148893D01*
X5478596Y30167084D01*
X5513197Y30214709D01*
X5513197Y30273577D01*
X5478596Y30321202D01*
X5422609Y30339393D01*
X5118716Y30339393D01*
X5118716Y30584322D01*
X5422609Y30584322D01*
X5478596Y30602513D01*
X5513197Y30650138D01*
X5513197Y30709006D01*
X5478596Y30756631D01*
X5422609Y30774822D01*
X4660609Y30774822D01*
X4604622Y30756631D01*
X4570021Y30709006D01*
X4570021Y30650138D01*
X4604622Y30602513D01*
X4660609Y30584322D01*
X4928216Y30584322D01*
X4928216Y30339393D01*
X4660609Y30339393D01*
X4604622Y30321202D01*
X4570021Y30273577D01*
X4570021Y30214709D01*
X4456502Y30214709D01*
X4456502Y31186849D01*
X4565362Y31186849D01*
X4574442Y31159609D01*
X4583127Y31132172D01*
X4583738Y31131721D01*
X4583978Y31131002D01*
X4607354Y31114288D01*
X4630488Y31097210D01*
X5392489Y30843210D01*
X5451355Y30842763D01*
X5499241Y30877002D01*
X5517857Y30932849D01*
X5500092Y30988972D01*
X5452730Y31023934D01*
X5300145Y31074796D01*
X5300145Y31300349D01*
X5452730Y31351210D01*
X5500092Y31386172D01*
X5517857Y31442295D01*
X5499241Y31498142D01*
X5451355Y31532381D01*
X5392489Y31531934D01*
X4630488Y31277934D01*
X4607354Y31260857D01*
X4583978Y31244142D01*
X4583738Y31243424D01*
X4583127Y31242972D01*
X4574442Y31215536D01*
X4565362Y31188295D01*
X4565590Y31187572D01*
X4565362Y31186849D01*
X4456502Y31186849D01*
X4456502Y31695572D01*
X4565359Y31695572D01*
X4570021Y31681224D01*
X4570021Y31666138D01*
X4578887Y31653934D01*
X4583550Y31639585D01*
X4595754Y31630718D01*
X4604622Y31618513D01*
X4618970Y31613851D01*
X4631175Y31604984D01*
X4646261Y31604984D01*
X4660609Y31600322D01*
X5422609Y31600322D01*
X5478596Y31618513D01*
X5513197Y31666138D01*
X5513197Y31725006D01*
X5478596Y31772631D01*
X5422609Y31790822D01*
X5155002Y31790822D01*
X5155002Y31827409D01*
X5477231Y32052969D01*
X5512665Y32099978D01*
X5513700Y32158836D01*
X5479942Y32207063D01*
X5424284Y32226236D01*
X5367986Y32209033D01*
X5135890Y32046566D01*
X5108660Y32101027D01*
X5097827Y32112026D01*
X5090819Y32125780D01*
X5054534Y32162066D01*
X5040777Y32169076D01*
X5029778Y32179909D01*
X4957206Y32216195D01*
X4935492Y32219466D01*
X4914609Y32226251D01*
X4805752Y32226251D01*
X4784868Y32219466D01*
X4763154Y32216195D01*
X4690583Y32179909D01*
X4679584Y32169076D01*
X4665829Y32162067D01*
X4629543Y32125781D01*
X4622534Y32112026D01*
X4611701Y32101027D01*
X4575415Y32028456D01*
X4572144Y32006742D01*
X4565359Y31985858D01*
X4565359Y31695572D01*
X4456502Y31695572D01*
X4456502Y32675286D01*
X4565359Y32675286D01*
X4570129Y32660603D01*
X4570247Y32645165D01*
X4606533Y32536308D01*
X4619573Y32518643D01*
X4629543Y32499077D01*
X4702114Y32426506D01*
X4715870Y32419497D01*
X4726869Y32408664D01*
X4799441Y32372378D01*
X4809937Y32370798D01*
X4818936Y32365166D01*
X4964079Y32328880D01*
X4975905Y32329700D01*
X4987181Y32326036D01*
X5096038Y32326036D01*
X5107313Y32329700D01*
X5119140Y32328880D01*
X5264283Y32365166D01*
X5273281Y32370797D01*
X5283779Y32372378D01*
X5356350Y32408664D01*
X5367349Y32419499D01*
X5381103Y32426506D01*
X5453676Y32499077D01*
X5463646Y32518646D01*
X5476686Y32536309D01*
X5512971Y32645166D01*
X5513088Y32660603D01*
X5517859Y32675286D01*
X5517859Y32747858D01*
X5513088Y32762542D01*
X5512971Y32777978D01*
X5476686Y32886835D01*
X5463646Y32904500D01*
X5453676Y32924067D01*
X5417390Y32960353D01*
X5410542Y32963842D01*
X5406025Y32970060D01*
X5384812Y32976953D01*
X5364938Y32987079D01*
X5357346Y32985877D01*
X5350038Y32988251D01*
X5096038Y32988251D01*
X5081690Y32983589D01*
X5066604Y32983589D01*
X5054399Y32974723D01*
X5040051Y32970060D01*
X5031183Y32957856D01*
X5018979Y32948988D01*
X5014316Y32934640D01*
X5005450Y32922435D01*
X5005450Y32907350D01*
X5000788Y32893001D01*
X5000788Y32747858D01*
X5018979Y32691871D01*
X5066604Y32657270D01*
X5125472Y32657270D01*
X5173097Y32691871D01*
X5191288Y32747858D01*
X5191288Y32797751D01*
X5305576Y32797751D01*
X5327359Y32732403D01*
X5327359Y32690742D01*
X5303072Y32617882D01*
X5257331Y32572141D01*
X5207934Y32547442D01*
X5084312Y32516536D01*
X4998907Y32516536D01*
X4875282Y32547443D01*
X4825889Y32572139D01*
X4780146Y32617882D01*
X4755859Y32690744D01*
X4755859Y32761658D01*
X4782089Y32814118D01*
X4790857Y32872329D01*
X4763734Y32924576D01*
X4711081Y32950903D01*
X4653009Y32941253D01*
X4611701Y32899312D01*
X4575415Y32826740D01*
X4572144Y32805027D01*
X4565359Y32784143D01*
X4565359Y32675286D01*
X4456502Y32675286D01*
X4456502Y33219572D01*
X4565359Y33219572D01*
X4570021Y33205224D01*
X4570021Y33190138D01*
X4578887Y33177934D01*
X4583550Y33163585D01*
X4595754Y33154718D01*
X4604622Y33142513D01*
X4618970Y33137851D01*
X4631175Y33128984D01*
X4646261Y33128984D01*
X4660609Y33124322D01*
X5422609Y33124322D01*
X5436957Y33128984D01*
X5452043Y33128984D01*
X5464247Y33137851D01*
X5478596Y33142513D01*
X5487463Y33154718D01*
X5499668Y33163585D01*
X5504330Y33177934D01*
X5513197Y33190138D01*
X5513197Y33205224D01*
X5517859Y33219572D01*
X5517859Y33582429D01*
X5499668Y33638416D01*
X5452043Y33673017D01*
X5393175Y33673017D01*
X5345550Y33638416D01*
X5327359Y33582429D01*
X5327359Y33314822D01*
X5118716Y33314822D01*
X5118716Y33473572D01*
X5100525Y33529559D01*
X5052900Y33564160D01*
X4994032Y33564160D01*
X4946407Y33529559D01*
X4928216Y33473572D01*
X4928216Y33314822D01*
X4755859Y33314822D01*
X4755859Y33582429D01*
X4737668Y33638416D01*
X4690043Y33673017D01*
X4631175Y33673017D01*
X4583550Y33638416D01*
X4565359Y33582429D01*
X4565359Y33219572D01*
X4456502Y33219572D01*
X4456502Y34116189D01*
X4568908Y34116189D01*
X4570021Y34088590D01*
X4570021Y34060996D01*
X4571199Y34059375D01*
X4571280Y34057369D01*
X4588401Y34035698D01*
X4604622Y34013371D01*
X4606529Y34012752D01*
X4607773Y34011177D01*
X4708785Y33943836D01*
X4763757Y33888864D01*
X4793130Y33830118D01*
X4834438Y33788177D01*
X4892510Y33778527D01*
X4945163Y33804854D01*
X4972286Y33857101D01*
X4963518Y33915312D01*
X4927232Y33987884D01*
X4920046Y33995180D01*
X5327359Y33995180D01*
X5327359Y33872715D01*
X5345550Y33816728D01*
X5393175Y33782127D01*
X5452043Y33782127D01*
X5499668Y33816728D01*
X5517859Y33872715D01*
X5517859Y34308144D01*
X5499668Y34364131D01*
X5452043Y34398732D01*
X5393175Y34398732D01*
X5345550Y34364131D01*
X5327359Y34308144D01*
X5327359Y34185680D01*
X4660609Y34185680D01*
X4658701Y34185061D01*
X4656770Y34185603D01*
X4630878Y34176021D01*
X4604622Y34167489D01*
X4603442Y34165866D01*
X4601563Y34165170D01*
X4586253Y34142208D01*
X4570021Y34119864D01*
X4570021Y34117859D01*
X4568908Y34116189D01*
X4456502Y34116189D01*
X4456502Y34507589D01*
X5626716Y34507589D01*
X5626716Y29241750D01*
G37*
G36*
X21948757Y35862721D02*
G01*
X21963183Y35848294D01*
X21982502Y35809658D01*
X21982502Y35637108D01*
X21773859Y35637108D01*
X21773859Y35809658D01*
X21793176Y35848293D01*
X21807603Y35862720D01*
X21846238Y35882037D01*
X21910124Y35882037D01*
X21948757Y35862721D01*
G37*
G36*
X22225934Y38499989D02*
G01*
X22275331Y38475290D01*
X22321072Y38429549D01*
X22345359Y38356689D01*
X22345359Y38285965D01*
X21773859Y38285965D01*
X21773859Y38356687D01*
X21798146Y38429549D01*
X21843889Y38475291D01*
X21893282Y38499988D01*
X22016907Y38530894D01*
X22102312Y38530894D01*
X22225934Y38499989D01*
G37*
G36*
X22717288Y33124322D02*
G01*
X21474502Y33124322D01*
X21474502Y33298995D01*
X21588021Y33298995D01*
X21622622Y33251370D01*
X21678609Y33233179D01*
X22295466Y33233179D01*
X22316349Y33239965D01*
X22338063Y33243235D01*
X22410635Y33279521D01*
X22421633Y33290354D01*
X22435389Y33297362D01*
X22471675Y33333647D01*
X22478684Y33347404D01*
X22489519Y33358404D01*
X22525804Y33430976D01*
X22529074Y33452691D01*
X22535859Y33473572D01*
X22535859Y33618715D01*
X22529074Y33639597D01*
X22525804Y33661311D01*
X22489518Y33733883D01*
X22478685Y33744882D01*
X22471676Y33758638D01*
X22435390Y33794924D01*
X22421633Y33801934D01*
X22410635Y33812766D01*
X22338063Y33849052D01*
X22316349Y33852323D01*
X22295466Y33859108D01*
X21678609Y33859108D01*
X21622622Y33840917D01*
X21588021Y33793292D01*
X21588021Y33734424D01*
X21622622Y33686799D01*
X21678609Y33668608D01*
X22272981Y33668608D01*
X22311615Y33649291D01*
X22326042Y33634864D01*
X22345359Y33596231D01*
X22345359Y33496057D01*
X22326042Y33457423D01*
X22311615Y33442997D01*
X22272981Y33423679D01*
X21678609Y33423679D01*
X21622622Y33405488D01*
X21588021Y33357863D01*
X21588021Y33298995D01*
X21474502Y33298995D01*
X21474502Y34235572D01*
X21583359Y34235572D01*
X21590144Y34214689D01*
X21593415Y34192974D01*
X21629701Y34120403D01*
X21640534Y34109405D01*
X21647543Y34095649D01*
X21683829Y34059363D01*
X21697584Y34052355D01*
X21708583Y34041521D01*
X21781154Y34005235D01*
X21802868Y34001965D01*
X21823752Y33995179D01*
X21896324Y33995179D01*
X21917207Y34001965D01*
X21938922Y34005235D01*
X22011493Y34041521D01*
X22022491Y34052355D01*
X22036247Y34059363D01*
X22072533Y34095649D01*
X22079542Y34109406D01*
X22090375Y34120404D01*
X22126661Y34192976D01*
X22128241Y34203473D01*
X22133872Y34212470D01*
X22167621Y34347469D01*
X22192319Y34396864D01*
X22206746Y34411291D01*
X22245381Y34430608D01*
X22272981Y34430608D01*
X22311615Y34411291D01*
X22326042Y34396864D01*
X22345359Y34358231D01*
X22345359Y34214742D01*
X22313962Y34120549D01*
X22313515Y34061683D01*
X22347754Y34013797D01*
X22403602Y33995182D01*
X22459724Y34012947D01*
X22494686Y34060309D01*
X22530971Y34169166D01*
X22531088Y34184603D01*
X22535859Y34199286D01*
X22535859Y34380715D01*
X22529074Y34401597D01*
X22525804Y34423311D01*
X22489518Y34495883D01*
X22478685Y34506882D01*
X22471676Y34520638D01*
X22435390Y34556924D01*
X22421633Y34563934D01*
X22410635Y34574766D01*
X22338063Y34611052D01*
X22316349Y34614323D01*
X22295466Y34621108D01*
X22222895Y34621108D01*
X22202011Y34614323D01*
X22180297Y34611052D01*
X22107726Y34574766D01*
X22096727Y34563933D01*
X22082972Y34556924D01*
X22046686Y34520638D01*
X22039677Y34506883D01*
X22028844Y34495884D01*
X21992558Y34423313D01*
X21990976Y34412816D01*
X21985346Y34403817D01*
X21951595Y34268816D01*
X21926899Y34219424D01*
X21912472Y34204997D01*
X21873838Y34185679D01*
X21846238Y34185679D01*
X21807603Y34204997D01*
X21793176Y34219424D01*
X21773859Y34258059D01*
X21773859Y34401544D01*
X21805257Y34495737D01*
X21805704Y34554603D01*
X21771465Y34602489D01*
X21715618Y34621105D01*
X21659495Y34603340D01*
X21624533Y34555979D01*
X21588247Y34447122D01*
X21588129Y34431685D01*
X21583359Y34417001D01*
X21583359Y34235572D01*
X21474502Y34235572D01*
X21474502Y34852429D01*
X21583359Y34852429D01*
X21588021Y34838081D01*
X21588021Y34822995D01*
X21596887Y34810791D01*
X21601550Y34796442D01*
X21613754Y34787575D01*
X21622622Y34775370D01*
X21636970Y34770708D01*
X21649175Y34761841D01*
X21664261Y34761841D01*
X21678609Y34757179D01*
X22440609Y34757179D01*
X22454957Y34761841D01*
X22470043Y34761841D01*
X22482247Y34770708D01*
X22496596Y34775370D01*
X22505463Y34787575D01*
X22517668Y34796442D01*
X22522330Y34810791D01*
X22531197Y34822995D01*
X22531197Y34838081D01*
X22535859Y34852429D01*
X22535859Y35215286D01*
X22517668Y35271273D01*
X22470043Y35305874D01*
X22411175Y35305874D01*
X22363550Y35271273D01*
X22345359Y35215286D01*
X22345359Y34947679D01*
X22136716Y34947679D01*
X22136716Y35106429D01*
X22118525Y35162416D01*
X22070900Y35197017D01*
X22012032Y35197017D01*
X21964407Y35162416D01*
X21946216Y35106429D01*
X21946216Y34947679D01*
X21773859Y34947679D01*
X21773859Y35215286D01*
X21755668Y35271273D01*
X21708043Y35305874D01*
X21649175Y35305874D01*
X21601550Y35271273D01*
X21583359Y35215286D01*
X21583359Y34852429D01*
X21474502Y34852429D01*
X21474502Y35541858D01*
X21583359Y35541858D01*
X21588021Y35527510D01*
X21588021Y35512424D01*
X21596887Y35500220D01*
X21601550Y35485871D01*
X21613754Y35477004D01*
X21622622Y35464799D01*
X21636970Y35460137D01*
X21649175Y35451270D01*
X21664261Y35451270D01*
X21678609Y35446608D01*
X22440609Y35446608D01*
X22496596Y35464799D01*
X22531197Y35512424D01*
X22531197Y35571292D01*
X22496596Y35618917D01*
X22440609Y35637108D01*
X22173002Y35637108D01*
X22173002Y35673695D01*
X22495231Y35899255D01*
X22530665Y35946264D01*
X22531700Y36005122D01*
X22512997Y36031841D01*
X22542615Y36031841D01*
X22590240Y36066442D01*
X22608431Y36122429D01*
X22608431Y36703001D01*
X22590240Y36758988D01*
X22542615Y36793589D01*
X22483747Y36793589D01*
X22436122Y36758988D01*
X22417931Y36703001D01*
X22417931Y36122429D01*
X22434881Y36070261D01*
X22385986Y36055319D01*
X22153890Y35892852D01*
X22126660Y35947313D01*
X22115827Y35958312D01*
X22108819Y35972066D01*
X22072534Y36008352D01*
X22058777Y36015362D01*
X22047778Y36026195D01*
X21975206Y36062481D01*
X21953492Y36065752D01*
X21932609Y36072537D01*
X21823752Y36072537D01*
X21802868Y36065752D01*
X21781154Y36062481D01*
X21708583Y36026195D01*
X21697584Y36015362D01*
X21683829Y36008353D01*
X21647543Y35972067D01*
X21640534Y35958312D01*
X21629701Y35947313D01*
X21593415Y35874742D01*
X21590144Y35853028D01*
X21583359Y35832144D01*
X21583359Y35541858D01*
X21474502Y35541858D01*
X21474502Y36854995D01*
X21588021Y36854995D01*
X21622622Y36807370D01*
X21678609Y36789179D01*
X22440609Y36789179D01*
X22454957Y36793841D01*
X22470043Y36793841D01*
X22482247Y36802708D01*
X22496596Y36807370D01*
X22505463Y36819575D01*
X22517668Y36828442D01*
X22522330Y36842791D01*
X22531197Y36854995D01*
X22531197Y36870081D01*
X22535859Y36884429D01*
X22535859Y37247286D01*
X22517668Y37303273D01*
X22470043Y37337874D01*
X22411175Y37337874D01*
X22363550Y37303273D01*
X22345359Y37247286D01*
X22345359Y36979679D01*
X21678609Y36979679D01*
X21622622Y36961488D01*
X21588021Y36913863D01*
X21588021Y36854995D01*
X21474502Y36854995D01*
X21474502Y37501286D01*
X21583359Y37501286D01*
X21588021Y37486938D01*
X21588021Y37471852D01*
X21596887Y37459648D01*
X21601550Y37445299D01*
X21613754Y37436432D01*
X21622622Y37424227D01*
X21636970Y37419565D01*
X21649175Y37410698D01*
X21664261Y37410698D01*
X21678609Y37406036D01*
X22440609Y37406036D01*
X22454957Y37410698D01*
X22470043Y37410698D01*
X22482247Y37419565D01*
X22496596Y37424227D01*
X22505463Y37436432D01*
X22517668Y37445299D01*
X22522330Y37459648D01*
X22531197Y37471852D01*
X22531197Y37486938D01*
X22535859Y37501286D01*
X22535859Y37864143D01*
X22517668Y37920130D01*
X22470043Y37954731D01*
X22411175Y37954731D01*
X22363550Y37920130D01*
X22345359Y37864143D01*
X22345359Y37596536D01*
X22136716Y37596536D01*
X22136716Y37755286D01*
X22118525Y37811273D01*
X22070900Y37845874D01*
X22012032Y37845874D01*
X21964407Y37811273D01*
X21946216Y37755286D01*
X21946216Y37596536D01*
X21773859Y37596536D01*
X21773859Y37864143D01*
X21755668Y37920130D01*
X21708043Y37954731D01*
X21649175Y37954731D01*
X21601550Y37920130D01*
X21583359Y37864143D01*
X21583359Y37501286D01*
X21474502Y37501286D01*
X21474502Y38190715D01*
X21583359Y38190715D01*
X21588021Y38176367D01*
X21588021Y38161281D01*
X21596887Y38149077D01*
X21601550Y38134728D01*
X21613754Y38125861D01*
X21622622Y38113656D01*
X21636970Y38108994D01*
X21649175Y38100127D01*
X21664261Y38100127D01*
X21678609Y38095465D01*
X22440609Y38095465D01*
X22454957Y38100127D01*
X22470043Y38100127D01*
X22482247Y38108994D01*
X22496596Y38113656D01*
X22505463Y38125861D01*
X22517668Y38134728D01*
X22522330Y38149077D01*
X22531197Y38161281D01*
X22531197Y38176367D01*
X22535859Y38190715D01*
X22535859Y38372144D01*
X22531088Y38386828D01*
X22530971Y38402264D01*
X22494686Y38511121D01*
X22481646Y38528785D01*
X22471676Y38548353D01*
X22399103Y38620924D01*
X22385349Y38627932D01*
X22374350Y38638766D01*
X22301779Y38675052D01*
X22291281Y38676634D01*
X22282283Y38682264D01*
X22137140Y38718550D01*
X22125313Y38717731D01*
X22114038Y38721394D01*
X22005181Y38721394D01*
X21993905Y38717731D01*
X21982079Y38718550D01*
X21836936Y38682264D01*
X21827937Y38676633D01*
X21817441Y38675052D01*
X21744869Y38638766D01*
X21733870Y38627934D01*
X21720114Y38620924D01*
X21647543Y38548353D01*
X21637573Y38528788D01*
X21624533Y38511122D01*
X21588247Y38402265D01*
X21588129Y38386828D01*
X21583359Y38372144D01*
X21583359Y38190715D01*
X21474502Y38190715D01*
X21474502Y39159903D01*
X21586908Y39159903D01*
X21588021Y39132304D01*
X21588021Y39104710D01*
X21589199Y39103089D01*
X21589280Y39101083D01*
X21606401Y39079412D01*
X21622622Y39057085D01*
X21624529Y39056466D01*
X21625773Y39054891D01*
X21726785Y38987550D01*
X21781757Y38932578D01*
X21811130Y38873832D01*
X21852438Y38831891D01*
X21910510Y38822241D01*
X21963163Y38848568D01*
X21990286Y38900815D01*
X21981518Y38959026D01*
X21945232Y39031598D01*
X21938046Y39038894D01*
X22345359Y39038894D01*
X22345359Y38916429D01*
X22363550Y38860442D01*
X22411175Y38825841D01*
X22470043Y38825841D01*
X22517668Y38860442D01*
X22535859Y38916429D01*
X22535859Y39351858D01*
X22517668Y39407845D01*
X22470043Y39442446D01*
X22411175Y39442446D01*
X22363550Y39407845D01*
X22345359Y39351858D01*
X22345359Y39229394D01*
X21678609Y39229394D01*
X21676701Y39228775D01*
X21674770Y39229317D01*
X21648878Y39219735D01*
X21622622Y39211203D01*
X21621442Y39209580D01*
X21619563Y39208884D01*
X21604253Y39185922D01*
X21588021Y39163578D01*
X21588021Y39161573D01*
X21586908Y39159903D01*
X21474502Y39159903D01*
X21474502Y39551303D01*
X22717288Y39551303D01*
X22717288Y33124322D01*
G37*
D11*
X18040647Y13946884D02*
X17998314Y13862217D01*
X17998314Y13862217D02*
X17955980Y13819884D01*
X17955980Y13819884D02*
X17871314Y13777551D01*
X17871314Y13777551D02*
X17617314Y13777551D01*
X17617314Y13777551D02*
X17532647Y13819884D01*
X17532647Y13819884D02*
X17490314Y13862217D01*
X17490314Y13862217D02*
X17447980Y13946884D01*
X17447980Y13946884D02*
X17447980Y14073884D01*
X17447980Y14073884D02*
X17490314Y14158551D01*
X17490314Y14158551D02*
X17532647Y14200884D01*
X17532647Y14200884D02*
X17617314Y14243217D01*
X17617314Y14243217D02*
X17871314Y14243217D01*
X17871314Y14243217D02*
X17955980Y14200884D01*
X17955980Y14200884D02*
X17998314Y14158551D01*
X17998314Y14158551D02*
X18040647Y14073884D01*
X18040647Y14073884D02*
X18040647Y13946884D01*
D10*
G36*
X15758802Y29878045D02*
G01*
X10958285Y29878045D01*
X10958285Y30343711D01*
X11103428Y30343711D01*
X11106671Y30332666D01*
X11105435Y30321218D01*
X11116836Y30286915D01*
X11165217Y30190153D01*
X11166837Y30188411D01*
X11167344Y30186084D01*
X11189006Y30157146D01*
X11237387Y30108765D01*
X11239477Y30107624D01*
X11240693Y30105577D01*
X11270395Y30084975D01*
X11367157Y30036595D01*
X11378487Y30034557D01*
X11388172Y30028332D01*
X11423952Y30023188D01*
X11617476Y30023188D01*
X11628520Y30026432D01*
X11639968Y30025195D01*
X11674271Y30036595D01*
X11771033Y30084975D01*
X11772776Y30086597D01*
X11775103Y30087103D01*
X11804041Y30108765D01*
X11845464Y30150188D01*
X12167809Y30150188D01*
X12170421Y30141291D01*
X12169102Y30132114D01*
X12180344Y30107496D01*
X12187970Y30081527D01*
X12194977Y30075456D01*
X12198829Y30067021D01*
X12221597Y30052389D01*
X12242051Y30034665D01*
X12251227Y30033346D01*
X12259029Y30028332D01*
X12294809Y30023188D01*
X12778619Y30023188D01*
X12847280Y30043349D01*
X12894142Y30097430D01*
X12902034Y30152322D01*
X12990303Y30152322D01*
X13009307Y30083332D01*
X13062594Y30035568D01*
X13133244Y30024195D01*
X13198828Y30052824D01*
X13222955Y30079741D01*
X13455951Y30429236D01*
X13688948Y30079741D01*
X13743810Y30033795D01*
X13814802Y30024803D01*
X13879387Y30055619D01*
X13917058Y30116461D01*
X13915856Y30188011D01*
X13900289Y30220635D01*
X13608586Y30658188D01*
X13900289Y31095741D01*
X13914268Y31140554D01*
X13940543Y31083021D01*
X14000743Y31044332D01*
X14036523Y31039188D01*
X14199809Y31039188D01*
X14199809Y30150188D01*
X14219970Y30081527D01*
X14274051Y30034665D01*
X14344883Y30024481D01*
X14409976Y30054208D01*
X14448665Y30114408D01*
X14453809Y30150188D01*
X14453809Y30871427D01*
X14780459Y30871427D01*
X14803027Y30803518D01*
X14858726Y30758592D01*
X14929873Y30750909D01*
X14964176Y30762310D01*
X15060938Y30810691D01*
X15062680Y30812312D01*
X15065007Y30812818D01*
X15070666Y30817055D01*
X15070666Y30277188D01*
X14907380Y30277188D01*
X14838719Y30257027D01*
X14791857Y30202946D01*
X14781673Y30132114D01*
X14811400Y30067021D01*
X14871600Y30028332D01*
X14907380Y30023188D01*
X15487952Y30023188D01*
X15556613Y30043349D01*
X15603475Y30097430D01*
X15613659Y30168262D01*
X15583932Y30233355D01*
X15523732Y30272044D01*
X15487952Y30277188D01*
X15324666Y30277188D01*
X15324666Y31166188D01*
X15314876Y31199529D01*
X15305644Y31233044D01*
X15304817Y31233785D01*
X15304505Y31234849D01*
X15278228Y31257618D01*
X15252357Y31280808D01*
X15251262Y31280985D01*
X15250424Y31281711D01*
X15216014Y31286659D01*
X15181707Y31292181D01*
X15180690Y31291738D01*
X15179592Y31291895D01*
X15147983Y31277461D01*
X15116123Y31263552D01*
X15115148Y31262465D01*
X15114499Y31262168D01*
X15113527Y31260657D01*
X15091996Y31236635D01*
X15002210Y31101957D01*
X14928910Y31028658D01*
X14850584Y30989494D01*
X14798188Y30940756D01*
X14780459Y30871427D01*
X14453809Y30871427D01*
X14453809Y31039188D01*
X14617095Y31039188D01*
X14685756Y31059349D01*
X14732618Y31113430D01*
X14742802Y31184262D01*
X14713075Y31249355D01*
X14652875Y31288044D01*
X14617095Y31293188D01*
X14036523Y31293188D01*
X13967862Y31273027D01*
X13921000Y31218946D01*
X13916020Y31184311D01*
X13902597Y31233044D01*
X13849310Y31280808D01*
X13778660Y31292181D01*
X13713076Y31263552D01*
X13688948Y31236635D01*
X13455951Y30887141D01*
X13222955Y31236635D01*
X13168094Y31282581D01*
X13097102Y31291574D01*
X13032517Y31260757D01*
X12994846Y31199915D01*
X12996048Y31128365D01*
X13011615Y31095741D01*
X13303316Y30658188D01*
X13011615Y30220635D01*
X12990303Y30152322D01*
X12902034Y30152322D01*
X12904326Y30168262D01*
X12874599Y30233355D01*
X12814399Y30272044D01*
X12778619Y30277188D01*
X12421809Y30277188D01*
X12421809Y30555378D01*
X12633476Y30555378D01*
X12702137Y30575539D01*
X12748999Y30629620D01*
X12759183Y30700452D01*
X12729456Y30765545D01*
X12669256Y30804234D01*
X12633476Y30809378D01*
X12421809Y30809378D01*
X12421809Y31039188D01*
X12778619Y31039188D01*
X12847280Y31059349D01*
X12894142Y31113430D01*
X12904326Y31184262D01*
X12874599Y31249355D01*
X12814399Y31288044D01*
X12778619Y31293188D01*
X12294809Y31293188D01*
X12285911Y31290576D01*
X12276735Y31291895D01*
X12252116Y31280653D01*
X12226148Y31273027D01*
X12220076Y31266020D01*
X12211642Y31262168D01*
X12197009Y31239400D01*
X12179286Y31218946D01*
X12177966Y31209770D01*
X12172953Y31201968D01*
X12167809Y31166188D01*
X12167809Y30150188D01*
X11845464Y30150188D01*
X11852422Y30157146D01*
X11853563Y30159236D01*
X11855609Y30160451D01*
X11876211Y30190153D01*
X11924592Y30286915D01*
X11926630Y30298245D01*
X11932856Y30307931D01*
X11938000Y30343711D01*
X11938000Y31166188D01*
X11917839Y31234849D01*
X11863758Y31281711D01*
X11792926Y31291895D01*
X11727833Y31262168D01*
X11689144Y31201968D01*
X11684000Y31166188D01*
X11684000Y30373691D01*
X11658245Y30322181D01*
X11639007Y30302944D01*
X11587496Y30277188D01*
X11453932Y30277188D01*
X11402420Y30302944D01*
X11383183Y30322181D01*
X11357428Y30373691D01*
X11357428Y31166188D01*
X11337267Y31234849D01*
X11283186Y31281711D01*
X11212354Y31291895D01*
X11147261Y31262168D01*
X11108572Y31201968D01*
X11103428Y31166188D01*
X11103428Y30343711D01*
X10958285Y30343711D01*
X10958285Y31438331D01*
X15758802Y31438331D01*
X15758802Y29878045D01*
G37*
X6077857Y22285682D02*
X5352142Y22285682D01*
X5714999Y22285682D02*
X5714999Y23555682D01*
X5714999Y23555682D02*
X5594047Y23374254D01*
X5594047Y23374254D02*
X5473095Y23253301D01*
X5473095Y23253301D02*
X5352142Y23192825D01*
X5352142Y25974730D02*
X5412618Y26035206D01*
X5412618Y26035206D02*
X5533571Y26095682D01*
X5533571Y26095682D02*
X5835952Y26095682D01*
X5835952Y26095682D02*
X5956904Y26035206D01*
X5956904Y26035206D02*
X6017380Y25974730D01*
X6017380Y25974730D02*
X6077857Y25853778D01*
X6077857Y25853778D02*
X6077857Y25732825D01*
X6077857Y25732825D02*
X6017380Y25551397D01*
X6017380Y25551397D02*
X5291666Y24825682D01*
X5291666Y24825682D02*
X6077857Y24825682D01*
G36*
X6546050Y17645405D02*
G01*
X5422564Y17645405D01*
X5422564Y18638787D01*
X5567707Y18638787D01*
X5590275Y18570878D01*
X5645974Y18525952D01*
X5717121Y18518269D01*
X5751424Y18529670D01*
X5848186Y18578051D01*
X5849928Y18579672D01*
X5852255Y18580178D01*
X5857914Y18584415D01*
X5857914Y18044548D01*
X5694628Y18044548D01*
X5625967Y18024387D01*
X5579105Y17970306D01*
X5568921Y17899474D01*
X5598648Y17834381D01*
X5658848Y17795692D01*
X5694628Y17790548D01*
X6275200Y17790548D01*
X6343861Y17810709D01*
X6390723Y17864790D01*
X6400907Y17935622D01*
X6371180Y18000715D01*
X6310980Y18039404D01*
X6275200Y18044548D01*
X6111914Y18044548D01*
X6111914Y18933548D01*
X6102124Y18966889D01*
X6092892Y19000404D01*
X6092065Y19001145D01*
X6091753Y19002209D01*
X6065476Y19024978D01*
X6039605Y19048168D01*
X6038510Y19048345D01*
X6037672Y19049071D01*
X6003262Y19054019D01*
X5968955Y19059541D01*
X5967938Y19059098D01*
X5966840Y19059255D01*
X5935231Y19044821D01*
X5903371Y19030912D01*
X5902396Y19029825D01*
X5901747Y19029528D01*
X5900775Y19028017D01*
X5879244Y19003995D01*
X5789458Y18869317D01*
X5716158Y18796018D01*
X5637832Y18756854D01*
X5585436Y18708116D01*
X5567707Y18638787D01*
X5422564Y18638787D01*
X5422564Y19204684D01*
X6546050Y19204684D01*
X6546050Y17645405D01*
G37*
X9579428Y46768473D02*
X10063238Y46768473D01*
X9482666Y46478188D02*
X9821333Y47494188D01*
X9821333Y47494188D02*
X10160000Y46478188D01*
X10498666Y46478188D02*
X10498666Y47494188D01*
X10498666Y47494188D02*
X11079238Y46478188D01*
X11079238Y46478188D02*
X11079238Y47494188D01*
X11417904Y47494188D02*
X11998476Y47494188D01*
X11708190Y46478188D02*
X11708190Y47494188D01*
X12337142Y47010378D02*
X12675809Y47010378D01*
X12820952Y46478188D02*
X12337142Y46478188D01*
X12337142Y46478188D02*
X12337142Y47494188D01*
X12337142Y47494188D02*
X12820952Y47494188D01*
X13256380Y46478188D02*
X13256380Y47494188D01*
X13256380Y47494188D02*
X13836952Y46478188D01*
X13836952Y46478188D02*
X13836952Y47494188D01*
X14320761Y46478188D02*
X14320761Y47494188D01*
X14320761Y47494188D02*
X14901333Y46478188D01*
X14901333Y46478188D02*
X14901333Y47494188D01*
X15336761Y46768473D02*
X15820571Y46768473D01*
X15239999Y46478188D02*
X15578666Y47494188D01*
X15578666Y47494188D02*
X15917333Y46478188D01*
D11*
G36*
X15433972Y9578495D02*
G01*
X15445004Y9567463D01*
X15467541Y9522388D01*
X15467541Y9447854D01*
X15445004Y9402781D01*
X15428172Y9385949D01*
X15383101Y9363413D01*
X15181791Y9363413D01*
X15181791Y9606830D01*
X15348968Y9606830D01*
X15433972Y9578495D01*
G37*
G36*
X15385841Y10007626D02*
G01*
X15402671Y9990796D01*
X15425208Y9945723D01*
X15425208Y9913522D01*
X15402671Y9868448D01*
X15385841Y9851618D01*
X15340767Y9829080D01*
X15181791Y9829080D01*
X15181791Y10030163D01*
X15340767Y10030163D01*
X15385841Y10007626D01*
G37*
G36*
X18218489Y9617413D02*
G01*
X18103510Y9617413D01*
X18160999Y9789882D01*
X18218489Y9617413D01*
G37*
G36*
X19111172Y10007628D02*
G01*
X19128004Y9990796D01*
X19150541Y9945723D01*
X19150541Y9871189D01*
X19128004Y9826114D01*
X19111174Y9809284D01*
X19066100Y9786746D01*
X18864791Y9786746D01*
X18864791Y10030163D01*
X19066101Y10030163D01*
X19111172Y10007628D01*
G37*
G36*
X21018352Y9014163D02*
G01*
X13054541Y9014163D01*
X13054541Y9421621D01*
X13181541Y9421621D01*
X13189457Y9397258D01*
X13193273Y9371923D01*
X13235607Y9287257D01*
X13248246Y9274425D01*
X13256422Y9258379D01*
X13298755Y9216044D01*
X13314806Y9207866D01*
X13327637Y9195228D01*
X13412304Y9152895D01*
X13437634Y9149080D01*
X13462000Y9141163D01*
X13631333Y9141163D01*
X13655698Y9149080D01*
X13681029Y9152895D01*
X13765696Y9195227D01*
X13778530Y9207868D01*
X13794578Y9216045D01*
X13836911Y9258379D01*
X13845087Y9274426D01*
X13857726Y9287258D01*
X13900059Y9371924D01*
X13903874Y9397257D01*
X13911791Y9421621D01*
X13911791Y9887288D01*
X14070541Y9887288D01*
X14078457Y9862923D01*
X14082273Y9837592D01*
X14124605Y9752925D01*
X14137245Y9740091D01*
X14145423Y9724043D01*
X14187757Y9681710D01*
X14203803Y9673534D01*
X14216636Y9660895D01*
X14301302Y9618562D01*
X14313548Y9616718D01*
X14324047Y9610148D01*
X14481546Y9570773D01*
X14539174Y9541959D01*
X14556004Y9525129D01*
X14578541Y9480055D01*
X14578541Y9447854D01*
X14556004Y9402781D01*
X14539174Y9385950D01*
X14494100Y9363413D01*
X14326698Y9363413D01*
X14216807Y9400044D01*
X14148129Y9400565D01*
X14092263Y9360619D01*
X14070544Y9295464D01*
X14091271Y9229988D01*
X14146525Y9189198D01*
X14273526Y9146865D01*
X14291537Y9146729D01*
X14308666Y9141163D01*
X14520333Y9141163D01*
X14544697Y9149080D01*
X14570030Y9152895D01*
X14654695Y9195228D01*
X14667527Y9207867D01*
X14683576Y9216044D01*
X14719820Y9252288D01*
X14959541Y9252288D01*
X14964980Y9235549D01*
X14964980Y9217948D01*
X14975325Y9203710D01*
X14980764Y9186970D01*
X14995002Y9176625D01*
X15005348Y9162386D01*
X15022087Y9156948D01*
X15036326Y9146602D01*
X15053926Y9146602D01*
X15070666Y9141163D01*
X15409333Y9141163D01*
X15433698Y9149080D01*
X15459029Y9152895D01*
X15543696Y9195227D01*
X15556530Y9207868D01*
X15572578Y9216045D01*
X15614911Y9258379D01*
X15623087Y9274426D01*
X15635726Y9287258D01*
X15678059Y9371924D01*
X15681874Y9397257D01*
X15689791Y9421621D01*
X16949208Y9421621D01*
X16957124Y9397258D01*
X16960940Y9371923D01*
X17003274Y9287257D01*
X17015913Y9274425D01*
X17024089Y9258379D01*
X17066422Y9216044D01*
X17082473Y9207866D01*
X17095304Y9195228D01*
X17179971Y9152895D01*
X17205301Y9149080D01*
X17229667Y9141163D01*
X17399000Y9141163D01*
X17423365Y9149080D01*
X17448696Y9152895D01*
X17533363Y9195227D01*
X17546197Y9207868D01*
X17562245Y9216045D01*
X17564951Y9218751D01*
X17758722Y9218751D01*
X17798667Y9162885D01*
X17863823Y9141166D01*
X17929299Y9161892D01*
X17970088Y9217147D01*
X18029427Y9395163D01*
X18292572Y9395163D01*
X18351911Y9217147D01*
X18392700Y9161893D01*
X18458176Y9141166D01*
X18523332Y9162885D01*
X18563277Y9218752D01*
X18563022Y9252288D01*
X18642541Y9252288D01*
X18663764Y9186970D01*
X18719326Y9146602D01*
X18788006Y9146602D01*
X18843568Y9186970D01*
X18864791Y9252288D01*
X18864791Y9564496D01*
X18907475Y9564496D01*
X19170629Y9188562D01*
X19225473Y9147222D01*
X19294141Y9146014D01*
X19350406Y9185399D01*
X19372774Y9250333D01*
X19352703Y9316014D01*
X19163158Y9586793D01*
X19226697Y9618562D01*
X19239529Y9631202D01*
X19255577Y9639378D01*
X19297910Y9681711D01*
X19306087Y9697760D01*
X19318726Y9710592D01*
X19361059Y9795259D01*
X19364874Y9820590D01*
X19372791Y9844955D01*
X19372791Y9971955D01*
X19364874Y9996320D01*
X19361059Y10021652D01*
X19318726Y10106318D01*
X19318106Y10106948D01*
X19409980Y10106948D01*
X19450348Y10051386D01*
X19515666Y10030163D01*
X19658541Y10030163D01*
X19658541Y9252288D01*
X19679764Y9186970D01*
X19735326Y9146602D01*
X19804006Y9146602D01*
X19859568Y9186970D01*
X19880791Y9252288D01*
X19880791Y9870739D01*
X20167780Y9870739D01*
X20198495Y9809310D01*
X20259449Y9777666D01*
X20327362Y9787895D01*
X20412029Y9830227D01*
X20420541Y9838611D01*
X20420541Y9363413D01*
X20277666Y9363413D01*
X20212348Y9342190D01*
X20171980Y9286628D01*
X20171980Y9217948D01*
X20212348Y9162386D01*
X20277666Y9141163D01*
X20785666Y9141163D01*
X20850984Y9162386D01*
X20891352Y9217948D01*
X20891352Y9286628D01*
X20850984Y9342190D01*
X20785666Y9363413D01*
X20642791Y9363413D01*
X20642791Y10141288D01*
X20642067Y10143514D01*
X20642701Y10145767D01*
X20631519Y10175979D01*
X20621568Y10206606D01*
X20619674Y10207982D01*
X20618863Y10210175D01*
X20592075Y10228034D01*
X20566006Y10246974D01*
X20563665Y10246974D01*
X20561718Y10248272D01*
X20529539Y10246974D01*
X20497326Y10246974D01*
X20495432Y10245599D01*
X20493095Y10245504D01*
X20467827Y10225543D01*
X20441764Y10206606D01*
X20441040Y10204381D01*
X20439204Y10202929D01*
X20360641Y10085085D01*
X20296505Y10020949D01*
X20227970Y9986681D01*
X20179039Y9938488D01*
X20167780Y9870739D01*
X19880791Y9870739D01*
X19880791Y10030163D01*
X20023666Y10030163D01*
X20088984Y10051386D01*
X20129352Y10106948D01*
X20129352Y10175628D01*
X20088984Y10231190D01*
X20023666Y10252413D01*
X19515666Y10252413D01*
X19450348Y10231190D01*
X19409980Y10175628D01*
X19409980Y10106948D01*
X19318106Y10106948D01*
X19306087Y10119151D01*
X19297911Y10135197D01*
X19255578Y10177531D01*
X19239530Y10185709D01*
X19226696Y10198349D01*
X19142029Y10240681D01*
X19116698Y10244497D01*
X19092333Y10252413D01*
X18753666Y10252413D01*
X18736926Y10246974D01*
X18719326Y10246974D01*
X18705087Y10236629D01*
X18688348Y10231190D01*
X18678002Y10216952D01*
X18663764Y10206606D01*
X18658325Y10189867D01*
X18647980Y10175628D01*
X18647980Y10158028D01*
X18642541Y10141288D01*
X18642541Y9252288D01*
X18563022Y9252288D01*
X18562755Y9287429D01*
X18266422Y10176429D01*
X18246511Y10203401D01*
X18226999Y10230691D01*
X18226159Y10230971D01*
X18225633Y10231684D01*
X18193589Y10241828D01*
X18161843Y10252409D01*
X18161001Y10252143D01*
X18160157Y10252410D01*
X18128320Y10241798D01*
X18096367Y10231683D01*
X18095841Y10230972D01*
X18095001Y10230691D01*
X18075470Y10203376D01*
X18055577Y10176428D01*
X17759244Y9287429D01*
X17758722Y9218751D01*
X17564951Y9218751D01*
X17604578Y9258379D01*
X17612754Y9274426D01*
X17625393Y9287258D01*
X17667726Y9371924D01*
X17671541Y9397257D01*
X17679458Y9421621D01*
X17679458Y10141288D01*
X17658235Y10206606D01*
X17602673Y10246974D01*
X17533993Y10246974D01*
X17478431Y10206606D01*
X17457208Y10141288D01*
X17457208Y9447854D01*
X17434671Y9402781D01*
X17417839Y9385949D01*
X17372768Y9363413D01*
X17255900Y9363413D01*
X17210826Y9385950D01*
X17193996Y9402780D01*
X17171458Y9447856D01*
X17171458Y10141288D01*
X17150235Y10206606D01*
X17094673Y10246974D01*
X17025993Y10246974D01*
X16970431Y10206606D01*
X16949208Y10141288D01*
X16949208Y9421621D01*
X15689791Y9421621D01*
X15689791Y9548621D01*
X15687194Y9556615D01*
X15853980Y9556615D01*
X15894348Y9501053D01*
X15959666Y9479830D01*
X16637000Y9479830D01*
X16702318Y9501053D01*
X16742686Y9556615D01*
X16742686Y9625295D01*
X16702318Y9680857D01*
X16637000Y9702080D01*
X15959666Y9702080D01*
X15894348Y9680857D01*
X15853980Y9625295D01*
X15853980Y9556615D01*
X15687194Y9556615D01*
X15681874Y9572987D01*
X15678059Y9598317D01*
X15635726Y9682984D01*
X15623087Y9695817D01*
X15614910Y9711865D01*
X15583695Y9743080D01*
X15593393Y9752925D01*
X15635726Y9837592D01*
X15639541Y9862923D01*
X15647458Y9887288D01*
X15647458Y9971955D01*
X15639541Y9996320D01*
X15635726Y10021652D01*
X15593393Y10106318D01*
X15580753Y10119152D01*
X15572577Y10135198D01*
X15530243Y10177532D01*
X15514194Y10185710D01*
X15501362Y10198348D01*
X15416697Y10240681D01*
X15391364Y10244497D01*
X15367000Y10252413D01*
X15070666Y10252413D01*
X15053926Y10246974D01*
X15036326Y10246974D01*
X15022087Y10236629D01*
X15005348Y10231190D01*
X14995002Y10216952D01*
X14980764Y10206606D01*
X14975325Y10189867D01*
X14964980Y10175628D01*
X14964980Y10158028D01*
X14959541Y10141288D01*
X14959541Y9252288D01*
X14719820Y9252288D01*
X14725910Y9258378D01*
X14734086Y9274425D01*
X14746726Y9287258D01*
X14789059Y9371924D01*
X14792874Y9397257D01*
X14800791Y9421621D01*
X14800791Y9506288D01*
X14792874Y9530654D01*
X14789059Y9555984D01*
X14746726Y9640651D01*
X14734088Y9653482D01*
X14725910Y9669533D01*
X14683575Y9711866D01*
X14667526Y9720043D01*
X14654695Y9732681D01*
X14570030Y9775014D01*
X14557783Y9776859D01*
X14547285Y9783428D01*
X14389783Y9822804D01*
X14332158Y9851617D01*
X14315326Y9868449D01*
X14292791Y9913520D01*
X14292791Y9945722D01*
X14315328Y9990796D01*
X14332158Y10007627D01*
X14377231Y10030163D01*
X14544631Y10030163D01*
X14654526Y9993532D01*
X14723203Y9993011D01*
X14779070Y10032956D01*
X14800788Y10098112D01*
X14780062Y10163588D01*
X14724807Y10204377D01*
X14597807Y10246711D01*
X14579794Y10246848D01*
X14562666Y10252413D01*
X14350999Y10252413D01*
X14326634Y10244497D01*
X14301302Y10240681D01*
X14216636Y10198348D01*
X14203802Y10185709D01*
X14187756Y10177532D01*
X14145422Y10135198D01*
X14137244Y10119150D01*
X14124606Y10106317D01*
X14082273Y10021652D01*
X14078457Y9996320D01*
X14070541Y9971955D01*
X14070541Y9887288D01*
X13911791Y9887288D01*
X13911791Y10141288D01*
X13890568Y10206606D01*
X13835006Y10246974D01*
X13766326Y10246974D01*
X13710764Y10206606D01*
X13689541Y10141288D01*
X13689541Y9447854D01*
X13667004Y9402781D01*
X13650172Y9385949D01*
X13605101Y9363413D01*
X13488233Y9363413D01*
X13443159Y9385950D01*
X13426329Y9402780D01*
X13403791Y9447856D01*
X13403791Y10141288D01*
X13382568Y10206606D01*
X13327006Y10246974D01*
X13258326Y10246974D01*
X13202764Y10206606D01*
X13181541Y10141288D01*
X13181541Y9421621D01*
X13054541Y9421621D01*
X13054541Y10379413D01*
X21018352Y10379413D01*
X21018352Y9014163D01*
G37*
G36*
X20526884Y14344340D02*
G01*
X20543715Y14327508D01*
X20566254Y14282433D01*
X20566254Y14081125D01*
X20322837Y14081125D01*
X20322837Y14282434D01*
X20345374Y14327508D01*
X20362204Y14344339D01*
X20407277Y14366875D01*
X20481813Y14366875D01*
X20526884Y14344340D01*
G37*
G36*
X21338837Y11149542D02*
G01*
X19973587Y11149542D01*
X19973587Y11353327D01*
X20106026Y11353327D01*
X20146394Y11297765D01*
X20211712Y11276542D01*
X20931379Y11276542D01*
X20955743Y11284459D01*
X20981076Y11288274D01*
X21065741Y11330607D01*
X21078573Y11343246D01*
X21094622Y11351423D01*
X21136956Y11393757D01*
X21145132Y11409804D01*
X21157772Y11422637D01*
X21200105Y11507303D01*
X21203920Y11532636D01*
X21211837Y11557000D01*
X21211837Y11726334D01*
X21203920Y11750699D01*
X21200105Y11776031D01*
X21157772Y11860697D01*
X21145132Y11873531D01*
X21136956Y11889577D01*
X21094622Y11931911D01*
X21078573Y11940089D01*
X21065741Y11952727D01*
X20981076Y11995060D01*
X20955743Y11998876D01*
X20931379Y12006792D01*
X20211712Y12006792D01*
X20146394Y11985569D01*
X20106026Y11930007D01*
X20106026Y11861327D01*
X20146394Y11805765D01*
X20211712Y11784542D01*
X20905146Y11784542D01*
X20950220Y11762005D01*
X20967050Y11745175D01*
X20989587Y11700102D01*
X20989587Y11583233D01*
X20967050Y11538160D01*
X20950220Y11521329D01*
X20905146Y11498792D01*
X20211712Y11498792D01*
X20146394Y11477569D01*
X20106026Y11422007D01*
X20106026Y11353327D01*
X19973587Y11353327D01*
X19973587Y12446000D01*
X20100587Y12446000D01*
X20108503Y12421635D01*
X20112319Y12396304D01*
X20154651Y12311637D01*
X20167291Y12298803D01*
X20175469Y12282755D01*
X20217803Y12240422D01*
X20233849Y12232246D01*
X20246682Y12219607D01*
X20331348Y12177274D01*
X20356680Y12173459D01*
X20381045Y12165542D01*
X20465712Y12165542D01*
X20490077Y12173459D01*
X20515408Y12177274D01*
X20600075Y12219606D01*
X20612908Y12232247D01*
X20628956Y12240423D01*
X20671289Y12282756D01*
X20679466Y12298805D01*
X20692105Y12311637D01*
X20734438Y12396304D01*
X20736282Y12408550D01*
X20742852Y12419048D01*
X20782227Y12576550D01*
X20811040Y12634175D01*
X20827870Y12651005D01*
X20872945Y12673542D01*
X20905145Y12673542D01*
X20950220Y12651004D01*
X20967050Y12634174D01*
X20989587Y12589100D01*
X20989587Y12421700D01*
X20952956Y12311808D01*
X20952435Y12243130D01*
X20992381Y12187264D01*
X21057536Y12165545D01*
X21123012Y12186272D01*
X21163802Y12241526D01*
X21206135Y12368527D01*
X21206271Y12386539D01*
X21211837Y12403667D01*
X21211837Y12615333D01*
X21203920Y12639699D01*
X21200105Y12665029D01*
X21157772Y12749696D01*
X21145134Y12762527D01*
X21136956Y12778578D01*
X21094621Y12820911D01*
X21078575Y12829087D01*
X21065743Y12841726D01*
X20981077Y12884060D01*
X20955742Y12887876D01*
X20931379Y12895792D01*
X20846712Y12895792D01*
X20822347Y12887876D01*
X20797015Y12884060D01*
X20712348Y12841726D01*
X20699515Y12829087D01*
X20683468Y12820910D01*
X20641135Y12778577D01*
X20632958Y12762530D01*
X20620318Y12749696D01*
X20577986Y12665029D01*
X20576141Y12652785D01*
X20569572Y12642286D01*
X20530196Y12484788D01*
X20501383Y12427159D01*
X20484553Y12410329D01*
X20439480Y12387792D01*
X20407277Y12387792D01*
X20362204Y12410329D01*
X20345372Y12427161D01*
X20322837Y12472232D01*
X20322837Y12639633D01*
X20359468Y12749527D01*
X20359989Y12818204D01*
X20320044Y12874071D01*
X20254888Y12895789D01*
X20189412Y12875063D01*
X20148623Y12819808D01*
X20106289Y12692808D01*
X20106152Y12674796D01*
X20100587Y12657667D01*
X20100587Y12446000D01*
X19973587Y12446000D01*
X19973587Y13165667D01*
X20100587Y13165667D01*
X20106026Y13148928D01*
X20106026Y13131327D01*
X20116371Y13117089D01*
X20121810Y13100349D01*
X20136048Y13090004D01*
X20146394Y13075765D01*
X20163133Y13070327D01*
X20177372Y13059981D01*
X20194972Y13059981D01*
X20211712Y13054542D01*
X21100712Y13054542D01*
X21117452Y13059981D01*
X21135052Y13059981D01*
X21149290Y13070327D01*
X21166030Y13075765D01*
X21176375Y13090004D01*
X21190614Y13100349D01*
X21196052Y13117089D01*
X21206398Y13131327D01*
X21206398Y13148928D01*
X21211837Y13165667D01*
X21211837Y13589000D01*
X21190614Y13654318D01*
X21135052Y13694686D01*
X21066372Y13694686D01*
X21010810Y13654318D01*
X20989587Y13589000D01*
X20989587Y13276792D01*
X20746170Y13276792D01*
X20746170Y13462000D01*
X20724947Y13527318D01*
X20669385Y13567686D01*
X20600705Y13567686D01*
X20545143Y13527318D01*
X20523920Y13462000D01*
X20523920Y13276792D01*
X20322837Y13276792D01*
X20322837Y13589000D01*
X20301614Y13654318D01*
X20246052Y13694686D01*
X20177372Y13694686D01*
X20121810Y13654318D01*
X20100587Y13589000D01*
X20100587Y13165667D01*
X19973587Y13165667D01*
X19973587Y13970000D01*
X20100587Y13970000D01*
X20106026Y13953261D01*
X20106026Y13935660D01*
X20116371Y13921422D01*
X20121810Y13904682D01*
X20136048Y13894337D01*
X20146394Y13880098D01*
X20163133Y13874660D01*
X20177372Y13864314D01*
X20194972Y13864314D01*
X20211712Y13858875D01*
X21100712Y13858875D01*
X21166030Y13880098D01*
X21206398Y13935660D01*
X21206398Y14004340D01*
X21166030Y14059902D01*
X21100712Y14081125D01*
X20788504Y14081125D01*
X20788504Y14123810D01*
X21164438Y14386963D01*
X21205778Y14441807D01*
X21206986Y14510475D01*
X21167601Y14566740D01*
X21102667Y14589108D01*
X21036986Y14569037D01*
X20766207Y14379493D01*
X20734438Y14443031D01*
X20721798Y14455864D01*
X20713623Y14471909D01*
X20671290Y14514243D01*
X20655242Y14522421D01*
X20642408Y14535061D01*
X20557741Y14577393D01*
X20532410Y14581209D01*
X20508045Y14589125D01*
X20381045Y14589125D01*
X20356680Y14581209D01*
X20331348Y14577393D01*
X20246682Y14535060D01*
X20233848Y14522421D01*
X20217802Y14514244D01*
X20175468Y14471910D01*
X20167290Y14455862D01*
X20154652Y14443029D01*
X20112319Y14358364D01*
X20108503Y14333032D01*
X20100587Y14308667D01*
X20100587Y13970000D01*
X19973587Y13970000D01*
X19973587Y15100719D01*
X20104728Y15100719D01*
X20106026Y15068528D01*
X20106026Y15036327D01*
X20107400Y15034435D01*
X20107495Y15032096D01*
X20127459Y15006827D01*
X20146394Y14980765D01*
X20148620Y14980042D01*
X20150071Y14978206D01*
X20267914Y14899644D01*
X20332050Y14835508D01*
X20366319Y14766971D01*
X20414512Y14718040D01*
X20482261Y14706782D01*
X20543691Y14737496D01*
X20575334Y14798451D01*
X20565105Y14866364D01*
X20522772Y14951030D01*
X20514388Y14959542D01*
X20989587Y14959542D01*
X20989587Y14816667D01*
X21010810Y14751349D01*
X21066372Y14710981D01*
X21135052Y14710981D01*
X21190614Y14751349D01*
X21211837Y14816667D01*
X21211837Y15324667D01*
X21190614Y15389985D01*
X21135052Y15430353D01*
X21066372Y15430353D01*
X21010810Y15389985D01*
X20989587Y15324667D01*
X20989587Y15181792D01*
X20211712Y15181792D01*
X20209486Y15181069D01*
X20207233Y15181702D01*
X20177017Y15170520D01*
X20146394Y15160569D01*
X20145018Y15158677D01*
X20142824Y15157864D01*
X20124959Y15131068D01*
X20106026Y15105007D01*
X20106026Y15102667D01*
X20104728Y15100719D01*
X19973587Y15100719D01*
X19973587Y15557353D01*
X21338837Y15557353D01*
X21338837Y11149542D01*
G37*
D10*
%TO.C,BAT1*%
X4673600Y10063480D02*
X4673600Y14058900D01*
X157480Y10076180D02*
X4650740Y10076180D01*
X157480Y16111220D02*
X157480Y10076180D01*
X1727200Y16111220D02*
X157480Y16111220D01*
%TO.C,USB-C1*%
X10820000Y5995000D02*
X10820000Y4695000D01*
X1880000Y5995000D02*
X1880000Y4695000D01*
X1880000Y1995000D02*
X1880000Y127000D01*
X10820000Y127000D02*
X10820000Y1995000D01*
X1880000Y127000D02*
X10820000Y127000D01*
%TO.C,CHARGE1*%
X2857500Y32677100D02*
X3683000Y32677100D01*
X3822700Y32524700D02*
X3695700Y32664400D01*
X2730500Y32524700D02*
X2857500Y32677100D01*
D13*
X3886200Y32512000D02*
X3886200Y31496000D01*
D10*
X3784600Y32512000D02*
X2743200Y32512000D01*
D13*
X2667000Y31496000D02*
X2667000Y32512000D01*
D14*
X3547600Y31292800D02*
X3657600Y31162800D01*
D15*
X3192000Y31215000D02*
X3412000Y31215000D01*
D14*
X3656600Y31161200D02*
X3646600Y31241200D01*
X3656600Y31161200D02*
X3576600Y31161200D01*
X3526600Y31085800D02*
X3636600Y30955800D01*
D15*
X3412000Y31025000D02*
X3312000Y31125000D01*
X3192000Y31025000D02*
X3292000Y31135000D01*
X3192000Y31025000D02*
X3412000Y31025000D01*
D14*
X3656600Y30945800D02*
X3646600Y31025800D01*
X3656600Y30945800D02*
X3576600Y30945800D01*
D15*
X3302000Y30855000D02*
X3302000Y31375000D01*
D10*
%TO.C,C14*%
X12065000Y11430000D02*
X12065000Y12446000D01*
X13589000Y11430000D02*
X13589000Y12446000D01*
D16*
%TO.C,C2*%
X4572000Y40576500D02*
X4064000Y40576500D01*
X4572000Y41465500D02*
X4064000Y41465500D01*
D10*
%TO.C,C3*%
X4445000Y35433000D02*
X4445000Y34417000D01*
X2921000Y35433000D02*
X2921000Y34417000D01*
%TO.C,USER_LED1*%
X21653500Y32677100D02*
X22479000Y32677100D01*
X22618700Y32524700D02*
X22491700Y32664400D01*
X21526500Y32524700D02*
X21653500Y32677100D01*
D13*
X22682200Y32512000D02*
X22682200Y31496000D01*
D10*
X22580600Y32512000D02*
X21539200Y32512000D01*
D13*
X21463000Y31496000D02*
X21463000Y32512000D01*
D14*
X22343600Y31292800D02*
X22453600Y31162800D01*
D15*
X21988000Y31215000D02*
X22208000Y31215000D01*
D14*
X22452600Y31161200D02*
X22442600Y31241200D01*
X22452600Y31161200D02*
X22372600Y31161200D01*
X22322600Y31085800D02*
X22432600Y30955800D01*
D15*
X22208000Y31025000D02*
X22108000Y31125000D01*
X21988000Y31025000D02*
X22088000Y31135000D01*
X21988000Y31025000D02*
X22208000Y31025000D01*
D14*
X22452600Y30945800D02*
X22442600Y31025800D01*
X22452600Y30945800D02*
X22372600Y30945800D01*
D15*
X22098000Y30855000D02*
X22098000Y31375000D01*
D10*
%TO.C,U2*%
X18172000Y13219000D02*
X18172001Y11669000D01*
X16371999Y11669000D02*
X16371999Y12969000D01*
D16*
%TO.C,R29*%
X22288500Y17780000D02*
X22288500Y17272000D01*
X21399500Y17780000D02*
X21399500Y17272000D01*
D10*
%TO.C,UEXT1*%
X22860000Y19685000D02*
X22860000Y28575000D01*
X22860000Y19685000D02*
X19050000Y19685000D01*
X21844000Y20701000D02*
X21844000Y27559000D01*
X21844000Y27559000D02*
X19050000Y27559000D01*
X21590000Y20955000D02*
X21590000Y27305000D01*
X21590000Y20955000D02*
X19050000Y20955000D01*
X21590000Y28575000D02*
X22860000Y28575000D01*
X21590000Y28575000D02*
X21590000Y28829000D01*
X21590000Y28829000D02*
X20320000Y28829000D01*
X21463000Y20828000D02*
X21717000Y20828000D01*
X21336000Y27432000D02*
X21844000Y27432000D01*
X20320000Y28575000D02*
X20320000Y28829000D01*
X19050000Y20701000D02*
X21844000Y20701000D01*
X19050000Y20701000D02*
X19050000Y20955000D01*
X19050000Y27305000D02*
X21590000Y27305000D01*
X19050000Y27305000D02*
X19050000Y27559000D01*
X19050000Y28575000D02*
X20320000Y28575000D01*
X6350000Y19685000D02*
X2540000Y19685000D01*
X6350000Y20701000D02*
X6350000Y20955000D01*
X6350000Y20955000D02*
X3810000Y20955000D01*
X6350000Y27305000D02*
X6350000Y27559000D01*
X6350000Y27559000D02*
X3556000Y27559000D01*
X5080000Y28575000D02*
X6350000Y28575000D01*
X5080000Y28829000D02*
X5080000Y28575000D01*
X5080000Y28829000D02*
X3810000Y28829000D01*
X4064000Y20828000D02*
X3683000Y20828000D01*
X4064000Y27432000D02*
X3683000Y27432000D01*
X3810000Y27305000D02*
X6350000Y27305000D01*
X3810000Y27305000D02*
X3810000Y20955000D01*
X3810000Y28829000D02*
X3810000Y28575000D01*
X3556000Y20701000D02*
X6350000Y20701000D01*
X3556000Y27559000D02*
X3556000Y20701000D01*
X2540000Y28575000D02*
X3810000Y28575000D01*
X2540000Y28575000D02*
X2540000Y19685000D01*
%TO.C,U1*%
X6100000Y49735000D02*
X6100000Y44335000D01*
X6100000Y44335000D02*
X6100000Y33135000D01*
X19300000Y49735000D02*
X6100000Y49735000D01*
X19300000Y49735000D02*
X19300000Y44335000D01*
X19300000Y44335000D02*
X6100000Y44335000D01*
X19300000Y33135000D02*
X6100000Y33135000D01*
X19300000Y33135000D02*
X19300000Y44335000D01*
D16*
%TO.C,R2*%
X4127500Y37719000D02*
X4127500Y37211000D01*
X3238500Y37719000D02*
X3238500Y37211000D01*
D10*
%TO.C,U3*%
X9829800Y10922000D02*
X8699500Y10922000D01*
X9829800Y13728700D02*
X8699500Y13728700D01*
%TO.C,C8*%
X19812000Y16383000D02*
X19812000Y15367000D01*
X18288000Y16383000D02*
X18288000Y15367000D01*
%TO.C,D1*%
X8509000Y17322800D02*
X8509000Y15417800D01*
X8331200Y15417800D02*
X8509000Y15417800D01*
X8331200Y16408400D02*
X6959600Y15417800D01*
X8331200Y17322800D02*
X8509000Y17322800D01*
X8331200Y17322800D02*
X8331200Y15417800D01*
X7874000Y16510000D02*
X7874000Y16129000D01*
X7747000Y16637000D02*
X7747000Y16002000D01*
X7620000Y16764000D02*
X7620000Y16002000D01*
X7493000Y16764000D02*
X7493000Y15875000D01*
X7366000Y15875000D02*
X7366000Y17018000D01*
X7239000Y17018000D02*
X7239000Y15748000D01*
X7112000Y15621000D02*
X7112000Y17145000D01*
X6959600Y17322800D02*
X8331200Y16408400D01*
X6959600Y17322800D02*
X6959600Y15417800D01*
X6477000Y16370300D02*
X8763000Y16370300D01*
%TO.C,FET1*%
X12065000Y16916400D02*
X12065000Y16205200D01*
X12065000Y14782800D02*
X12065000Y14071600D01*
X12903200Y16916400D02*
X12065000Y16916400D01*
X12903200Y14071600D02*
X12065000Y14071600D01*
%TO.C,L1*%
X16218000Y15571000D02*
X16218000Y15671000D01*
X17818000Y15571000D02*
X17818000Y15671000D01*
%TO.C,USB-UART1*%
X14580000Y127000D02*
X23520000Y127000D01*
X23520000Y127000D02*
X23520000Y1995000D01*
X14580000Y1995000D02*
X14580000Y127000D01*
X14580000Y5995000D02*
X14580000Y4695000D01*
X23520000Y5995000D02*
X23520000Y4695000D01*
%TO.C,C1*%
X4191000Y38735000D02*
X3175000Y38735000D01*
X4191000Y40259000D02*
X3175000Y40259000D01*
%TO.C,C7*%
X15621000Y12446000D02*
X15621000Y11430000D01*
X14097000Y12446000D02*
X14097000Y11430000D01*
%TO.C,C10*%
X9398000Y13970000D02*
X8382000Y13970000D01*
X9398000Y15494000D02*
X8382000Y15494000D01*
D16*
%TO.C,C13*%
X21018500Y17780000D02*
X21018500Y17272000D01*
X20129500Y17780000D02*
X20129500Y17272000D01*
D10*
%TO.C,USER1*%
X21414000Y11235000D02*
X21514000Y11235000D01*
X22614000Y11235000D02*
X23614000Y11235000D01*
X24814000Y11235000D02*
X24714000Y11235000D01*
X21414000Y15435000D02*
X21414000Y11235000D01*
X21514000Y15435000D02*
X21414000Y15435000D01*
X22614000Y15435000D02*
X23614000Y15435000D01*
X24814000Y15435000D02*
X24814000Y11235000D01*
X24814000Y15435000D02*
X24714000Y15435000D01*
%TD*%
M02*
