%TF.GenerationSoftware,KiCad,Pcbnew,7.0.9-7.0.9~ubuntu22.04.1*%
%TF.CreationDate,2025-06-23T15:00:47+03:00*%
%TF.ProjectId,ESP32-C6-DevKit-Lipo_Rev_A,45535033-322d-4433-962d-4465764b6974,A*%
%TF.SameCoordinates,PX791ddc0PY791ddc0*%
%TF.FileFunction,Soldermask,Bot*%
%TF.FilePolarity,Negative*%
%FSLAX46Y46*%
G04 Gerber Fmt 4.6, Leading zero omitted, Abs format (unit mm)*
G04 Created by KiCad (PCBNEW 7.0.9-7.0.9~ubuntu22.04.1) date 2025-06-23 15:00:47*
%MOMM*%
%LPD*%
G01*
G04 APERTURE LIST*
G04 Aperture macros list*
%AMRoundRect*
0 Rectangle with rounded corners*
0 $1 Rounding radius*
0 $2 $3 $4 $5 $6 $7 $8 $9 X,Y pos of 4 corners*
0 Add a 4 corners polygon primitive as box body*
4,1,4,$2,$3,$4,$5,$6,$7,$8,$9,$2,$3,0*
0 Add four circle primitives for the rounded corners*
1,1,$1+$1,$2,$3*
1,1,$1+$1,$4,$5*
1,1,$1+$1,$6,$7*
1,1,$1+$1,$8,$9*
0 Add four rect primitives between the rounded corners*
20,1,$1+$1,$2,$3,$4,$5,0*
20,1,$1+$1,$4,$5,$6,$7,0*
20,1,$1+$1,$6,$7,$8,$9,0*
20,1,$1+$1,$8,$9,$2,$3,0*%
G04 Aperture macros list end*
%ADD10RoundRect,0.050800X0.700000X-0.700000X0.700000X0.700000X-0.700000X0.700000X-0.700000X-0.700000X0*%
%ADD11C,1.501600*%
%ADD12C,0.701600*%
%ADD13O,1.301600X2.301600*%
%ADD14O,1.401600X2.101600*%
%ADD15C,1.301600*%
%ADD16RoundRect,0.050800X0.250000X0.275000X-0.250000X0.275000X-0.250000X-0.275000X0.250000X-0.275000X0*%
%ADD17RoundRect,0.050800X-0.250000X-0.275000X0.250000X-0.275000X0.250000X0.275000X-0.250000X0.275000X0*%
%ADD18RoundRect,0.050800X0.500000X-0.700000X0.500000X0.700000X-0.500000X0.700000X-0.500000X-0.700000X0*%
%ADD19RoundRect,0.050800X0.275000X-0.250000X0.275000X0.250000X-0.275000X0.250000X-0.275000X-0.250000X0*%
%ADD20RoundRect,0.050800X-0.275000X0.250000X-0.275000X-0.250000X0.275000X-0.250000X0.275000X0.250000X0*%
%ADD21RoundRect,0.050800X-0.700000X0.500000X-0.700000X-0.500000X0.700000X-0.500000X0.700000X0.500000X0*%
%ADD22RoundRect,0.050800X0.381000X-0.254000X0.381000X0.254000X-0.381000X0.254000X-0.381000X-0.254000X0*%
%ADD23RoundRect,0.050800X0.700000X-0.500000X0.700000X0.500000X-0.700000X0.500000X-0.700000X-0.500000X0*%
%ADD24RoundRect,0.050800X-0.381000X0.254000X-0.381000X-0.254000X0.381000X-0.254000X0.381000X0.254000X0*%
%ADD25C,3.000000*%
%ADD26RoundRect,0.050800X0.889000X-0.889000X0.889000X0.889000X-0.889000X0.889000X-0.889000X-0.889000X0*%
%ADD27C,1.879600*%
%ADD28RoundRect,0.050800X0.500000X0.700000X-0.500000X0.700000X-0.500000X-0.700000X0.500000X-0.700000X0*%
%ADD29RoundRect,0.050800X0.125000X0.500000X-0.125000X0.500000X-0.125000X-0.500000X0.125000X-0.500000X0*%
%ADD30RoundRect,0.050800X-0.508000X-0.508000X0.508000X-0.508000X0.508000X0.508000X-0.508000X0.508000X0*%
G04 APERTURE END LIST*
D10*
%TO.C,BAT1*%
X1747520Y12065000D03*
D11*
X1744980Y14094460D03*
%TD*%
D12*
%TO.C,USB-C1*%
X9240000Y6975000D03*
X3460000Y6975000D03*
D13*
X10670000Y7475000D03*
X2030000Y7475000D03*
D14*
X10670000Y3295000D03*
X2030000Y3295000D03*
%TD*%
D15*
%TO.C,UEXT1*%
X16510000Y24130000D03*
X8890000Y24130000D03*
%TD*%
D14*
%TO.C,USB-UART1*%
X14730000Y3295000D03*
X23370000Y3295000D03*
D13*
X14730000Y7475000D03*
X23370000Y7475000D03*
D12*
X16160000Y6975000D03*
X21940000Y6975000D03*
%TD*%
D16*
%TO.C,C5*%
X12827000Y30226000D03*
D17*
X13843000Y30226000D03*
%TD*%
D18*
%TO.C,Q1*%
X13147040Y25491440D03*
X15049500Y25491440D03*
X14094460Y23281640D03*
%TD*%
D19*
%TO.C,R17*%
X16256000Y10541000D03*
D20*
X16256000Y9525000D03*
%TD*%
D19*
%TO.C,R27*%
X6985000Y2794000D03*
D20*
X6985000Y1778000D03*
%TD*%
D17*
%TO.C,R22*%
X18034000Y30099000D03*
D16*
X17018000Y30099000D03*
%TD*%
D21*
%TO.C,D5*%
X18542000Y38857000D03*
X18542000Y35057000D03*
%TD*%
D17*
%TO.C,C6*%
X11938000Y30226000D03*
D16*
X10922000Y30226000D03*
%TD*%
D22*
%TO.C,PWR_SENS_E1*%
X4064000Y33655000D03*
X4064000Y34417000D03*
%TD*%
D23*
%TO.C,D2*%
X17780000Y4069000D03*
X17780000Y7869000D03*
%TD*%
D17*
%TO.C,R3*%
X4572000Y16637000D03*
D16*
X3556000Y16637000D03*
%TD*%
D19*
%TO.C,R23*%
X16256000Y15875000D03*
D20*
X16256000Y14859000D03*
%TD*%
%TO.C,R26*%
X9144000Y1778000D03*
D19*
X9144000Y2794000D03*
%TD*%
D24*
%TO.C,BAT_PWR_E1*%
X4953000Y15367000D03*
X4953000Y14605000D03*
%TD*%
D21*
%TO.C,D7*%
X20320000Y25649000D03*
X20320000Y21849000D03*
%TD*%
D20*
%TO.C,C9*%
X16256000Y11811000D03*
D19*
X16256000Y12827000D03*
%TD*%
D20*
%TO.C,R16*%
X12065000Y12446000D03*
D19*
X12065000Y13462000D03*
%TD*%
D22*
%TO.C,BAT_SENS_E1*%
X3810000Y20193000D03*
X3810000Y20955000D03*
%TD*%
D25*
%TO.C,FID4*%
X3937000Y1651000D03*
%TD*%
D17*
%TO.C,C4*%
X4572000Y18923000D03*
D16*
X3556000Y18923000D03*
%TD*%
D23*
%TO.C,D3*%
X6731000Y4069000D03*
X6731000Y7869000D03*
%TD*%
D20*
%TO.C,R15*%
X14986000Y11811000D03*
D19*
X14986000Y12827000D03*
%TD*%
D25*
%TO.C,FID6*%
X21463000Y1651000D03*
%TD*%
D17*
%TO.C,R19*%
X16637000Y22733000D03*
D16*
X15621000Y22733000D03*
%TD*%
%TO.C,R5*%
X4064000Y32258000D03*
D17*
X5080000Y32258000D03*
%TD*%
D20*
%TO.C,R18*%
X21463000Y15748000D03*
D19*
X21463000Y16764000D03*
%TD*%
D26*
%TO.C,EXT1*%
X1270000Y17780000D03*
D27*
X1270000Y20320000D03*
X1270000Y22860000D03*
X1270000Y25400000D03*
X1270000Y27940000D03*
X1270000Y30480000D03*
X1270000Y33020000D03*
X1270000Y35560000D03*
X1270000Y38100000D03*
X1270000Y40640000D03*
X1270000Y43180000D03*
%TD*%
D28*
%TO.C,D4*%
X18283000Y20955000D03*
X14483000Y20955000D03*
%TD*%
D29*
%TO.C,U4*%
X19796000Y12713000D03*
X19296000Y12713000D03*
X18796000Y12713000D03*
X18296000Y12713000D03*
X17796000Y12713000D03*
X17796000Y17513000D03*
X18296000Y17513000D03*
X18796000Y17513000D03*
X19296000Y17513000D03*
X19796000Y17513000D03*
%TD*%
D20*
%TO.C,R25*%
X19558000Y3810000D03*
D19*
X19558000Y4826000D03*
%TD*%
D17*
%TO.C,R20*%
X15367000Y19050000D03*
D16*
X14351000Y19050000D03*
%TD*%
%TO.C,C12*%
X19812000Y19685000D03*
D17*
X20828000Y19685000D03*
%TD*%
%TO.C,R7*%
X12954000Y21336000D03*
D16*
X11938000Y21336000D03*
%TD*%
D18*
%TO.C,Q2*%
X17211040Y28539440D03*
X19113500Y28539440D03*
X18158460Y26329640D03*
%TD*%
D20*
%TO.C,R11*%
X15748000Y33147000D03*
D19*
X15748000Y34163000D03*
%TD*%
D16*
%TO.C,R4*%
X12827000Y9144000D03*
D17*
X13843000Y9144000D03*
%TD*%
D20*
%TO.C,R12*%
X6985000Y17907000D03*
D19*
X6985000Y18923000D03*
%TD*%
D26*
%TO.C,EXT2*%
X24130000Y17780000D03*
D27*
X24130000Y20320000D03*
X24130000Y22860000D03*
X24130000Y25400000D03*
X24130000Y27940000D03*
X24130000Y30480000D03*
X24130000Y33020000D03*
X24130000Y35560000D03*
X24130000Y38100000D03*
X24130000Y40640000D03*
X24130000Y43180000D03*
%TD*%
D19*
%TO.C,R21*%
X20701000Y31496000D03*
D20*
X20701000Y30480000D03*
%TD*%
D23*
%TO.C,D6*%
X3937000Y22865000D03*
X3937000Y26665000D03*
%TD*%
D20*
%TO.C,R24*%
X20828000Y3810000D03*
D19*
X20828000Y4826000D03*
%TD*%
D17*
%TO.C,R8*%
X12954000Y19558000D03*
D16*
X11938000Y19558000D03*
%TD*%
D19*
%TO.C,R30*%
X20574000Y27940000D03*
D20*
X20574000Y26924000D03*
%TD*%
%TO.C,R28*%
X15748000Y26924000D03*
D19*
X15748000Y27940000D03*
%TD*%
D25*
%TO.C,FID5*%
X21209000Y42926000D03*
%TD*%
D20*
%TO.C,R13*%
X11938000Y31242000D03*
D19*
X11938000Y32258000D03*
%TD*%
D17*
%TO.C,R9*%
X16129000Y35687000D03*
D16*
X15113000Y35687000D03*
%TD*%
D20*
%TO.C,R1*%
X4064000Y30226000D03*
D19*
X4064000Y31242000D03*
%TD*%
D16*
%TO.C,R6*%
X3556000Y17780000D03*
D17*
X4572000Y17780000D03*
%TD*%
%TO.C,R10*%
X18542000Y33655000D03*
D16*
X17526000Y33655000D03*
%TD*%
D30*
%TO.C,C11*%
X21717000Y14478000D03*
X23495000Y14478000D03*
%TD*%
D19*
%TO.C,R14*%
X12827000Y32258000D03*
D20*
X12827000Y31242000D03*
%TD*%
M02*
