%TF.GenerationSoftware,KiCad,Pcbnew,7.0.9-7.0.9~ubuntu22.04.1*%
%TF.CreationDate,2025-06-23T15:00:47+03:00*%
%TF.ProjectId,ESP32-C6-DevKit-Lipo_Rev_A,45535033-322d-4433-962d-4465764b6974,A*%
%TF.SameCoordinates,PX791ddc0PY791ddc0*%
%TF.FileFunction,Paste,Top*%
%TF.FilePolarity,Positive*%
%FSLAX46Y46*%
G04 Gerber Fmt 4.6, Leading zero omitted, Abs format (unit mm)*
G04 Created by KiCad (PCBNEW 7.0.9-7.0.9~ubuntu22.04.1) date 2025-06-23 15:00:47*
%MOMM*%
%LPD*%
G01*
G04 APERTURE LIST*
G04 Aperture macros list*
%AMOutline4P*
0 Free polygon, 4 corners , with rotation*
0 The origin of the aperture is its center*
0 number of corners: always 4*
0 $1 to $8 corner X, Y*
0 $9 Rotation angle, in degrees counterclockwise*
0 create outline with 4 corners*
4,1,4,$1,$2,$3,$4,$5,$6,$7,$8,$1,$2,$9*%
G04 Aperture macros list end*
%ADD10R,2.100000X3.200000*%
%ADD11R,2.100000X3.000000*%
%ADD12R,1.100000X2.200000*%
%ADD13R,1.100000X2.000000*%
%ADD14R,0.280000X1.130000*%
%ADD15R,0.230000X1.130000*%
%ADD16R,0.800000X0.800000*%
%ADD17R,1.016000X1.016000*%
%ADD18C,1.000000*%
%ADD19R,0.500000X0.550000*%
%ADD20R,0.230000X0.750000*%
%ADD21R,0.550000X0.500000*%
%ADD22Outline4P,-0.850000X-2.275000X0.850000X-2.275000X0.850000X2.275000X-0.850000X2.275000X0.000000*%
%ADD23R,0.800000X0.400000*%
%ADD24R,0.400000X0.800000*%
%ADD25R,1.450000X1.450000*%
%ADD26R,0.700000X0.700000*%
%ADD27R,1.200000X0.550000*%
%ADD28R,1.000000X1.400000*%
%ADD29R,1.400000X1.000000*%
%ADD30R,2.000000X1.100000*%
G04 APERTURE END LIST*
D10*
%TO.C,USB-C1*%
X11277600Y7475000D03*
X1422400Y7475000D03*
D11*
X11277600Y3295000D03*
X1422400Y3295000D03*
D12*
X11277600Y7475000D03*
X1422400Y7475000D03*
D13*
X11277600Y3295000D03*
X1422400Y3295000D03*
D14*
X3025000Y8377000D03*
X3825000Y8377000D03*
D15*
X5100000Y8377000D03*
X6100000Y8377000D03*
X6600000Y8377000D03*
X7600000Y8377000D03*
D14*
X8875000Y8377000D03*
X9675000Y8377000D03*
X9425000Y8377000D03*
X8625000Y8377000D03*
D15*
X8100000Y8377000D03*
X7100000Y8377000D03*
X5600000Y8377000D03*
X4600000Y8377000D03*
D14*
X4075000Y8377000D03*
X3275000Y8377000D03*
%TD*%
D16*
%TO.C,CHARGE1*%
X3302000Y31877000D03*
X3302000Y30353000D03*
%TD*%
D17*
%TO.C,C14*%
X12827000Y11049000D03*
X12827000Y12827000D03*
%TD*%
D18*
%TO.C,FID3*%
X3810000Y43053000D03*
%TD*%
D19*
%TO.C,C2*%
X4826000Y41021000D03*
X3810000Y41021000D03*
%TD*%
D17*
%TO.C,C3*%
X3683000Y35814000D03*
X3683000Y34036000D03*
%TD*%
D16*
%TO.C,USER_LED1*%
X22098000Y31877000D03*
X22098000Y30353000D03*
%TD*%
D20*
%TO.C,U2*%
X17772000Y13094000D03*
X17272000Y13094000D03*
X16772000Y13094000D03*
X17772000Y11544000D03*
X17272000Y11544000D03*
X16772000Y11544000D03*
%TD*%
D21*
%TO.C,R29*%
X21844000Y18034000D03*
X21844000Y17018000D03*
%TD*%
D22*
%TO.C,UEXT1*%
X17780000Y21005000D03*
X17780000Y27255000D03*
X15240000Y21005000D03*
X15240000Y27255000D03*
X12700000Y21005000D03*
X12700000Y27255000D03*
X10160000Y21005000D03*
X10160000Y27255000D03*
X7620000Y21005000D03*
X7620000Y27255000D03*
%TD*%
D23*
%TO.C,U1*%
X6800000Y42735000D03*
X6800000Y41935000D03*
X6800000Y41135000D03*
X6800000Y40335000D03*
X6800000Y39535000D03*
X6800000Y38735000D03*
X6800000Y37935000D03*
X6800000Y37135000D03*
X6800000Y36335000D03*
X6800000Y35535000D03*
X6800000Y34735000D03*
D24*
X7900000Y33835000D03*
X8700000Y33835000D03*
X9500000Y33835000D03*
X10300000Y33835000D03*
X11100000Y33835000D03*
X11900000Y33835000D03*
X12700000Y33835000D03*
X13500000Y33835000D03*
X14300000Y33835000D03*
X15100000Y33835000D03*
X15900000Y33835000D03*
X16700000Y33835000D03*
X17500000Y33835000D03*
D23*
X18600000Y34735000D03*
X18600000Y35535000D03*
X18600000Y36335000D03*
X18600000Y37135000D03*
X18600000Y37935000D03*
X18600000Y38735000D03*
X18600000Y39535000D03*
X18600000Y40335000D03*
X18600000Y41135000D03*
X18600000Y41935000D03*
X18600000Y42735000D03*
D24*
X17500000Y43635000D03*
X16700000Y43635000D03*
X15900000Y43635000D03*
X15100000Y43635000D03*
X14300000Y43635000D03*
X13500000Y43635000D03*
X12700000Y43635000D03*
X11900000Y43635000D03*
X11100000Y43635000D03*
X10300000Y43635000D03*
X9500000Y43635000D03*
X8700000Y43635000D03*
X7900000Y43635000D03*
D25*
X10725000Y40710000D03*
X10725000Y38735000D03*
X10725000Y36760000D03*
X12700000Y40710000D03*
X12700000Y38735000D03*
X12700000Y36760000D03*
X14675000Y40710000D03*
X14675000Y38735000D03*
X14675000Y36760000D03*
D26*
X18650000Y43685000D03*
X18650000Y33785000D03*
X6750000Y33785000D03*
X6750000Y43685000D03*
%TD*%
D21*
%TO.C,R2*%
X3683000Y37973000D03*
X3683000Y36957000D03*
%TD*%
D27*
%TO.C,U3*%
X7971000Y13269000D03*
X7971000Y12319000D03*
X7971000Y11369000D03*
X10571000Y11369000D03*
X10571000Y13269000D03*
%TD*%
D17*
%TO.C,C8*%
X19050000Y16764000D03*
X19050000Y14986000D03*
%TD*%
D28*
%TO.C,D1*%
X9520000Y16383000D03*
X5720000Y16383000D03*
%TD*%
D29*
%TO.C,FET1*%
X13807440Y14544040D03*
X13807440Y16446500D03*
X11597640Y15491460D03*
%TD*%
D30*
%TO.C,L1*%
X17018000Y14921000D03*
X17018000Y16321000D03*
%TD*%
D14*
%TO.C,USB-UART1*%
X15975000Y8377000D03*
X16775000Y8377000D03*
D15*
X17300000Y8377000D03*
X18300000Y8377000D03*
X19800000Y8377000D03*
X20800000Y8377000D03*
D14*
X21325000Y8377000D03*
X22125000Y8377000D03*
X22375000Y8377000D03*
X21575000Y8377000D03*
D15*
X20300000Y8377000D03*
X19300000Y8377000D03*
X18800000Y8377000D03*
X17800000Y8377000D03*
D14*
X16525000Y8377000D03*
X15725000Y8377000D03*
D13*
X14122400Y3295000D03*
X23977600Y3295000D03*
D12*
X14122400Y7475000D03*
X23977600Y7475000D03*
D11*
X14122400Y3295000D03*
X23977600Y3295000D03*
D10*
X14122400Y7475000D03*
X23977600Y7475000D03*
%TD*%
D17*
%TO.C,C1*%
X4572000Y39497000D03*
X2794000Y39497000D03*
%TD*%
%TO.C,C7*%
X14859000Y12827000D03*
X14859000Y11049000D03*
%TD*%
%TO.C,C10*%
X9779000Y14732000D03*
X8001000Y14732000D03*
%TD*%
D21*
%TO.C,C13*%
X20574000Y18034000D03*
X20574000Y17018000D03*
%TD*%
D28*
%TO.C,USER1*%
X22039000Y11260000D03*
X24189000Y11260000D03*
X22039000Y15410000D03*
X24189000Y15410000D03*
%TD*%
M02*
