M48
; DRILL file {KiCad 7.0.9-7.0.9~ubuntu22.04.1} date 23.06.2025 (пн) 15:00:54
; FORMAT={-:-/ absolute / metric / decimal}
; #@! TF.CreationDate,2025-06-23T15:00:54+03:00
; #@! TF.GenerationSoftware,Kicad,Pcbnew,7.0.9-7.0.9~ubuntu22.04.1
; #@! TF.FileFunction,Plated,1,2,PTH
FMAT,2
METRIC
; #@! TA.AperFunction,Plated,PTH,ViaDrill
T1C0.300
; #@! TA.AperFunction,Plated,PTH,ViaDrill
T2C0.400
; #@! TA.AperFunction,Plated,PTH,ViaDrill
T3C0.600
; #@! TA.AperFunction,Plated,PTH,ComponentDrill
T4C0.800
; #@! TA.AperFunction,Plated,PTH,ComponentDrill
T5C0.900
; #@! TA.AperFunction,Plated,PTH,ComponentDrill
T6C1.000
%
G90
G05
T1
X2.159Y36.83
X3.302Y29.464
X4.191Y25.527
X4.191Y24.638
X4.255Y23.749
X4.572Y36.83
X5.08Y35.941
X5.08Y34.671
X5.461Y37.084
X5.461Y12.827
X5.461Y11.557
X5.588Y10.77
X5.588Y10.033
X5.842Y31.75
X5.969Y43.561
X5.969Y35.687
X5.969Y33.655
X6.223Y32.766
X6.604Y29.972
X6.604Y22.606
X6.985Y13.716
X7.493Y9.525
X7.62Y2.921
X8.001Y36.957
X8.509Y2.921
X8.763Y22.733
X8.763Y21.717
X9.398Y35.687
X9.398Y34.798
X9.652Y30.734
X10.287Y35.56
X10.668Y30.861
X11.493Y13.398
X11.684Y21.971
X11.684Y20.32
X11.938Y32.893
X12.192Y24.511
X12.827Y32.893
X13.716Y32.004
X14.986Y30.861
X15.113Y34.925
X15.748Y32.512
X16.002Y11.176
X17.145Y35.56
X17.399Y32.766
X17.526Y31.623
X17.78Y23.876
X18.161Y9.398
X18.923Y5.461
X19.05Y29.972
X19.431Y43.561
X19.685Y38.989
X19.812Y20.447
X20.447Y10.668
X20.447Y9.906
X20.828Y23.368
X20.828Y5.461
X21.209Y18.034
X21.336Y30.48
X22.606Y13.589
X22.86Y10.795
T2
X15.24Y17.018
X19.558Y24.003
X20.828Y20.447
X21.59Y29.337
T3
X3.048Y41.148
X4.572Y38.354
X4.953Y21.59
X5.207Y27.813
X5.969Y13.97
X6.096Y28.448
X6.096Y26.947
X6.096Y21.082
X6.096Y19.939
X6.096Y1.016
X6.604Y5.461
X7.366Y23.876
X7.747Y6.731
X8.001Y40.259
X8.128Y42.291
X8.128Y10.541
X8.771Y9.465
X9.144Y29.845
X9.398Y40.005
X9.525Y32.893
X9.525Y31.877
X9.906Y42.291
X11.176Y14.478
X11.176Y10.414
X11.303Y1.016
X11.557Y42.291
X11.684Y35.052
X12.446Y10.16
X12.7Y35.052
X13.589Y42.291
X13.716Y35.052
X13.843Y11.938
X15.494Y42.291
X16.002Y40.259
X16.002Y38.735
X16.002Y37.084
X17.018Y39.497
X17.018Y37.846
X17.399Y42.291
X17.526Y6.477
X18.542Y11.049
X18.796Y13.843
X18.923Y1.016
X19.685Y33.274
X19.812Y6.096
X20.066Y41.148
X22.098Y9.652
X22.987Y39.37
X22.987Y36.83
X23.622Y12.573
T5
X1.745Y14.094
X1.748Y12.065
T6
X1.27Y43.18
X1.27Y40.64
X1.27Y38.1
X1.27Y35.56
X1.27Y33.02
X1.27Y30.48
X1.27Y27.94
X1.27Y25.4
X1.27Y22.86
X1.27Y20.32
X1.27Y17.78
X24.13Y43.18
X24.13Y40.64
X24.13Y38.1
X24.13Y35.56
X24.13Y33.02
X24.13Y30.48
X24.13Y27.94
X24.13Y25.4
X24.13Y22.86
X24.13Y20.32
X24.13Y17.78
T4
G00X2.03Y7.925
M15
G01X2.03Y7.025
M16
G05
G00X2.03Y3.595
M15
G01X2.03Y2.995
M16
G05
G00X10.67Y7.925
M15
G01X10.67Y7.025
M16
G05
G00X10.67Y3.595
M15
G01X10.67Y2.995
M16
G05
G00X14.73Y7.925
M15
G01X14.73Y7.025
M16
G05
G00X14.73Y3.595
M15
G01X14.73Y2.995
M16
G05
G00X23.37Y7.925
M15
G01X23.37Y7.025
M16
G05
G00X23.37Y3.595
M15
G01X23.37Y2.995
M16
G05
T0
M30
