%TF.GenerationSoftware,KiCad,Pcbnew,7.0.9-7.0.9~ubuntu22.04.1*%
%TF.CreationDate,2025-06-23T15:00:47+03:00*%
%TF.ProjectId,ESP32-C6-DevKit-Lipo_Rev_A,45535033-322d-4433-962d-4465764b6974,A*%
%TF.SameCoordinates,PX791ddc0PY791ddc0*%
%TF.FileFunction,Soldermask,Top*%
%TF.FilePolarity,Negative*%
%FSLAX46Y46*%
G04 Gerber Fmt 4.6, Leading zero omitted, Abs format (unit mm)*
G04 Created by KiCad (PCBNEW 7.0.9-7.0.9~ubuntu22.04.1) date 2025-06-23 15:00:47*
%MOMM*%
%LPD*%
G01*
G04 APERTURE LIST*
G04 Aperture macros list*
%AMRoundRect*
0 Rectangle with rounded corners*
0 $1 Rounding radius*
0 $2 $3 $4 $5 $6 $7 $8 $9 X,Y pos of 4 corners*
0 Add a 4 corners polygon primitive as box body*
4,1,4,$2,$3,$4,$5,$6,$7,$8,$9,$2,$3,0*
0 Add four circle primitives for the rounded corners*
1,1,$1+$1,$2,$3*
1,1,$1+$1,$4,$5*
1,1,$1+$1,$6,$7*
1,1,$1+$1,$8,$9*
0 Add four rect primitives between the rounded corners*
20,1,$1+$1,$2,$3,$4,$5,0*
20,1,$1+$1,$4,$5,$6,$7,0*
20,1,$1+$1,$6,$7,$8,$9,0*
20,1,$1+$1,$8,$9,$2,$3,0*%
G04 Aperture macros list end*
%ADD10RoundRect,0.050800X0.700000X-0.700000X0.700000X0.700000X-0.700000X0.700000X-0.700000X-0.700000X0*%
%ADD11C,1.501600*%
%ADD12C,0.701600*%
%ADD13RoundRect,0.050800X-0.550000X-1.100000X0.550000X-1.100000X0.550000X1.100000X-0.550000X1.100000X0*%
%ADD14O,1.301600X2.301600*%
%ADD15RoundRect,0.050800X-0.550000X-1.000000X0.550000X-1.000000X0.550000X1.000000X-0.550000X1.000000X0*%
%ADD16O,1.401600X2.101600*%
%ADD17RoundRect,0.050800X-0.150000X-0.575000X0.150000X-0.575000X0.150000X0.575000X-0.150000X0.575000X0*%
%ADD18RoundRect,0.050800X-0.125000X-0.575000X0.125000X-0.575000X0.125000X0.575000X-0.125000X0.575000X0*%
%ADD19RoundRect,0.050800X0.400000X-0.400000X0.400000X0.400000X-0.400000X0.400000X-0.400000X-0.400000X0*%
%ADD20RoundRect,0.050800X0.508000X-0.508000X0.508000X0.508000X-0.508000X0.508000X-0.508000X-0.508000X0*%
%ADD21C,3.000000*%
%ADD22RoundRect,0.050800X-0.250000X-0.275000X0.250000X-0.275000X0.250000X0.275000X-0.250000X0.275000X0*%
%ADD23RoundRect,0.050800X0.250000X0.275000X-0.250000X0.275000X-0.250000X-0.275000X0.250000X-0.275000X0*%
%ADD24RoundRect,0.050800X-0.508000X0.508000X-0.508000X-0.508000X0.508000X-0.508000X0.508000X0.508000X0*%
%ADD25RoundRect,0.050800X-0.125000X0.350000X-0.125000X-0.350000X0.125000X-0.350000X0.125000X0.350000X0*%
%ADD26RoundRect,0.050800X0.275000X-0.250000X0.275000X0.250000X-0.275000X0.250000X-0.275000X-0.250000X0*%
%ADD27RoundRect,0.050800X-0.275000X0.250000X-0.275000X-0.250000X0.275000X-0.250000X0.275000X0.250000X0*%
%ADD28RoundRect,0.050800X0.500000X-2.125000X0.500000X2.125000X-0.500000X2.125000X-0.500000X-2.125000X0*%
%ADD29C,1.301600*%
%ADD30RoundRect,0.050800X0.400000X-0.200000X0.400000X0.200000X-0.400000X0.200000X-0.400000X-0.200000X0*%
%ADD31RoundRect,0.050800X-0.200000X-0.400000X0.200000X-0.400000X0.200000X0.400000X-0.200000X0.400000X0*%
%ADD32RoundRect,0.050800X0.725000X-0.725000X0.725000X0.725000X-0.725000X0.725000X-0.725000X-0.725000X0*%
%ADD33RoundRect,0.050800X-0.350000X-0.350000X0.350000X-0.350000X0.350000X0.350000X-0.350000X0.350000X0*%
%ADD34RoundRect,0.050800X0.600000X0.275000X-0.600000X0.275000X-0.600000X-0.275000X0.600000X-0.275000X0*%
%ADD35RoundRect,0.050800X0.500000X0.700000X-0.500000X0.700000X-0.500000X-0.700000X0.500000X-0.700000X0*%
%ADD36RoundRect,0.050800X-0.700000X-0.500000X0.700000X-0.500000X0.700000X0.500000X-0.700000X0.500000X0*%
%ADD37RoundRect,0.050800X0.900000X-0.450000X0.900000X0.450000X-0.900000X0.450000X-0.900000X-0.450000X0*%
%ADD38RoundRect,0.050800X0.508000X0.508000X-0.508000X0.508000X-0.508000X-0.508000X0.508000X-0.508000X0*%
%ADD39RoundRect,0.050800X-0.325000X0.525000X-0.325000X-0.525000X0.325000X-0.525000X0.325000X0.525000X0*%
%ADD40RoundRect,0.050800X0.889000X-0.889000X0.889000X0.889000X-0.889000X0.889000X-0.889000X-0.889000X0*%
%ADD41C,1.879600*%
G04 APERTURE END LIST*
D10*
%TO.C,BAT1*%
X1747520Y12065000D03*
D11*
X1744980Y14094460D03*
%TD*%
D12*
%TO.C,USB-C1*%
X9240000Y6975000D03*
X3460000Y6975000D03*
D13*
X11277600Y7475000D03*
D14*
X10670000Y7475000D03*
X2030000Y7475000D03*
D13*
X1422400Y7475000D03*
D15*
X11277600Y3295000D03*
D16*
X10670000Y3295000D03*
X2030000Y3295000D03*
D15*
X1422400Y3295000D03*
D17*
X3025000Y8377000D03*
X3825000Y8377000D03*
D18*
X5100000Y8377000D03*
X6100000Y8377000D03*
X6600000Y8377000D03*
X7600000Y8377000D03*
D17*
X8875000Y8377000D03*
X9675000Y8377000D03*
X9425000Y8377000D03*
X8625000Y8377000D03*
D18*
X8100000Y8377000D03*
X7100000Y8377000D03*
X5600000Y8377000D03*
X4600000Y8377000D03*
D17*
X4075000Y8377000D03*
X3275000Y8377000D03*
%TD*%
D19*
%TO.C,CHARGE1*%
X3302000Y31877000D03*
X3302000Y30353000D03*
%TD*%
D20*
%TO.C,C14*%
X12827000Y11049000D03*
X12827000Y12827000D03*
%TD*%
D21*
%TO.C,FID3*%
X3810000Y43053000D03*
%TD*%
D22*
%TO.C,C2*%
X4826000Y41021000D03*
D23*
X3810000Y41021000D03*
%TD*%
D24*
%TO.C,C3*%
X3683000Y35814000D03*
X3683000Y34036000D03*
%TD*%
D19*
%TO.C,USER_LED1*%
X22098000Y31877000D03*
X22098000Y30353000D03*
%TD*%
D25*
%TO.C,U2*%
X17772000Y11569000D03*
X17272000Y11569000D03*
X16772000Y11569000D03*
X16772000Y13069000D03*
X17272000Y13069000D03*
X17772000Y13069000D03*
%TD*%
D26*
%TO.C,R29*%
X21844000Y18034000D03*
D27*
X21844000Y17018000D03*
%TD*%
D28*
%TO.C,UEXT1*%
X17780000Y27255000D03*
X17780000Y21005000D03*
X15240000Y27255000D03*
X15240000Y21005000D03*
X12700000Y27255000D03*
X12700000Y21005000D03*
X10160000Y27255000D03*
X10160000Y21005000D03*
X7620000Y27255000D03*
X7620000Y21005000D03*
D29*
X16510000Y24130000D03*
X8890000Y24130000D03*
%TD*%
D30*
%TO.C,U1*%
X6800000Y42735000D03*
X6800000Y41935000D03*
X6800000Y41135000D03*
X6800000Y40335000D03*
X6800000Y39535000D03*
X6800000Y38735000D03*
X6800000Y37935000D03*
X6800000Y37135000D03*
X6800000Y36335000D03*
X6800000Y35535000D03*
X6800000Y34735000D03*
D31*
X7900000Y33835000D03*
X8700000Y33835000D03*
X9500000Y33835000D03*
X10300000Y33835000D03*
X11100000Y33835000D03*
X11900000Y33835000D03*
X12700000Y33835000D03*
X13500000Y33835000D03*
X14300000Y33835000D03*
X15100000Y33835000D03*
X15900000Y33835000D03*
X16700000Y33835000D03*
X17500000Y33835000D03*
D30*
X18600000Y34735000D03*
X18600000Y35535000D03*
X18600000Y36335000D03*
X18600000Y37135000D03*
X18600000Y37935000D03*
X18600000Y38735000D03*
X18600000Y39535000D03*
X18600000Y40335000D03*
X18600000Y41135000D03*
X18600000Y41935000D03*
X18600000Y42735000D03*
D31*
X17500000Y43635000D03*
X16700000Y43635000D03*
X15900000Y43635000D03*
X15100000Y43635000D03*
X14300000Y43635000D03*
X13500000Y43635000D03*
X12700000Y43635000D03*
X11900000Y43635000D03*
X11100000Y43635000D03*
X10300000Y43635000D03*
X9500000Y43635000D03*
X8700000Y43635000D03*
X7900000Y43635000D03*
D32*
X10725000Y40710000D03*
X10725000Y38735000D03*
X10725000Y36760000D03*
X12700000Y40710000D03*
X12700000Y38735000D03*
X12700000Y36760000D03*
X14675000Y40710000D03*
X14675000Y38735000D03*
X14675000Y36760000D03*
D33*
X18650000Y43685000D03*
X18650000Y33785000D03*
X6750000Y33785000D03*
X6750000Y43685000D03*
%TD*%
D26*
%TO.C,R2*%
X3683000Y37973000D03*
D27*
X3683000Y36957000D03*
%TD*%
D34*
%TO.C,U3*%
X7971000Y13269000D03*
X7971000Y12319000D03*
X7971000Y11369000D03*
X10571000Y11369000D03*
X10571000Y13269000D03*
%TD*%
D21*
%TO.C,FID1*%
X21209000Y42926000D03*
%TD*%
D24*
%TO.C,C8*%
X19050000Y16764000D03*
X19050000Y14986000D03*
%TD*%
D35*
%TO.C,D1*%
X9520000Y16383000D03*
X5720000Y16383000D03*
%TD*%
D36*
%TO.C,FET1*%
X13807440Y14544040D03*
X13807440Y16446500D03*
X11597640Y15491460D03*
%TD*%
D37*
%TO.C,L1*%
X17018000Y14921000D03*
X17018000Y16321000D03*
%TD*%
D17*
%TO.C,USB-UART1*%
X15975000Y8377000D03*
X16775000Y8377000D03*
D18*
X17300000Y8377000D03*
X18300000Y8377000D03*
X19800000Y8377000D03*
X20800000Y8377000D03*
D17*
X21325000Y8377000D03*
X22125000Y8377000D03*
X22375000Y8377000D03*
X21575000Y8377000D03*
D18*
X20300000Y8377000D03*
X19300000Y8377000D03*
X18800000Y8377000D03*
X17800000Y8377000D03*
D17*
X16525000Y8377000D03*
X15725000Y8377000D03*
D15*
X14122400Y3295000D03*
D16*
X14730000Y3295000D03*
X23370000Y3295000D03*
D15*
X23977600Y3295000D03*
D13*
X14122400Y7475000D03*
D14*
X14730000Y7475000D03*
X23370000Y7475000D03*
D13*
X23977600Y7475000D03*
D12*
X16160000Y6975000D03*
X21940000Y6975000D03*
%TD*%
D38*
%TO.C,C1*%
X4572000Y39497000D03*
X2794000Y39497000D03*
%TD*%
D24*
%TO.C,C7*%
X14859000Y12827000D03*
X14859000Y11049000D03*
%TD*%
D38*
%TO.C,C10*%
X9779000Y14732000D03*
X8001000Y14732000D03*
%TD*%
D21*
%TO.C,FID2*%
X3429000Y15748000D03*
%TD*%
D26*
%TO.C,C13*%
X20574000Y18034000D03*
D27*
X20574000Y17018000D03*
%TD*%
D39*
%TO.C,USER1*%
X22039000Y11260000D03*
X22039000Y15410000D03*
X24189000Y11260000D03*
X24189000Y15410000D03*
%TD*%
D40*
%TO.C,EXT1*%
X1270000Y17780000D03*
D41*
X1270000Y20320000D03*
X1270000Y22860000D03*
X1270000Y25400000D03*
X1270000Y27940000D03*
X1270000Y30480000D03*
X1270000Y33020000D03*
X1270000Y35560000D03*
X1270000Y38100000D03*
X1270000Y40640000D03*
X1270000Y43180000D03*
%TD*%
D40*
%TO.C,EXT2*%
X24130000Y17780000D03*
D41*
X24130000Y20320000D03*
X24130000Y22860000D03*
X24130000Y25400000D03*
X24130000Y27940000D03*
X24130000Y30480000D03*
X24130000Y33020000D03*
X24130000Y35560000D03*
X24130000Y38100000D03*
X24130000Y40640000D03*
X24130000Y43180000D03*
%TD*%
M02*
